<svg xmlns="http://www.w3.org/2000/svg" xmlns:xlink="http://www.w3.org/1999/xlink" viewBox="0 0 160 600"><defs><linearGradient id="linear-gradient" x1="80" y1="107" x2="80" gradientUnits="userSpaceOnUse"><stop offset="0" stop-opacity="0"/><stop offset="1" stop-opacity="0.2"/></linearGradient></defs><title>bg</title><g style="isolation:isolate"><g id="Layer_2" data-name="Layer 2"><g id="Layer_4" data-name="Layer 4"><rect width="160" height="107" opacity="0.85" fill="url(#linear-gradient)" style="mix-blend-mode:darken"/><path d="M0,512H160V375C109.23,387.73,56.68,411.14,0,435.06Z" fill="#ffd237"/><rect y="426" width="160" height="174" fill="#006aff"/><path d="M50.92,587.26c.34-.24.68-.49,1-.75,4.27-3.41,6.74-8.21,8.18-13.23,1.63-5.7,1.94-12.16-1.49-18-9.82-16.62-29.25-7.69-36.84,1.3-4.38,5.19-6.42,12.16-4.2,19S26.81,589,35,590.57A21.3,21.3,0,0,0,50.92,587.26Z" fill="#c88205"/><rect x="38" y="561" width="3" height="39" fill="#f2a619"/><polygon points="133 527 160 556 160 600 110 600 81 527 133 527" fill="#0d4599"/><polygon points="81 527 110 556 110 600 53 600 53 556 81 527" fill="#e0f2ff"/><rect x="73" y="575" width="17" height="25" fill="#006aff"/><path d="M153,592H119V564h34Zm-31-3h28V567H122Z" fill="#e0f2ff"/><path d="M87.58,26.69h2.59l.76,2.45c.25.81.46,1.57.67,2.35h0c.21-.76.43-1.57.68-2.35l.79-2.45H95l.78,2.45c.26.84.45,1.57.67,2.35h0c.2-.78.42-1.53.67-2.35l.75-2.45h2.41L97.71,34.8H95.34l-.64-2c-.25-.8-.49-1.61-.69-2.36h0c-.2.75-.44,1.53-.7,2.35l-.66,2H90.21Z" fill="#fff"/><rect x="70.15" y="22.4" width="2.62" height="12.4" fill="#fff"/><rect x="74.71" y="22.4" width="2.62" height="12.4" fill="#fff"/><path d="M78.63,30.77a4.41,4.41,0,1,1,4.42,4.3,4.3,4.3,0,0,1-4.42-4.3m6.3,0a1.9,1.9,0,1,0-1.88,2,1.92,1.92,0,0,0,1.88-2" fill="#fff"/><polygon points="54.98 23.55 54.98 25.94 59.62 25.94 59.63 25.97 54.84 34.11 54.84 34.8 63.87 34.8 63.87 32.41 58.85 32.41 58.84 32.38 63.62 24.24 63.62 24.24 63.62 23.55 54.98 23.55" fill="#fff"/><path d="M66.85,22.62a1.48,1.48,0,1,1-1.5,1.48,1.49,1.49,0,0,1,1.5-1.48m-1.31,4.07h2.62V34.8H65.54Z" fill="#fff"/><path d="M38.6,27.63a.25.25,0,0,1,.3.1c.5.52,2.13,2.35,2.58,2.85a.16.16,0,0,1,0,.23,0,0,0,0,1,0,0,56.28,56.28,0,0,0-8.23,8.73c0,.06,0,.06,0,0a97.42,97.42,0,0,1,14.85-5.06v-4l-14-11.09L20,30.59v5.49A99.12,99.12,0,0,1,38.6,27.63Z" fill="#fff"/><path d="M28,47.15a.23.23,0,0,1-.3,0l-2.75-3c-.07-.09-.08-.13,0-.27A49.63,49.63,0,0,1,33.31,34s0-.07,0-.05A115.91,115.91,0,0,0,20,40.38v10H48.09V39.61C44.19,40.45,33,44.28,28,47.15Z" fill="#fff"/><path d="M102.56,26a.34.34,0,0,0-.32-.35h-.41v1H102v-.31h.16l.19.31h.19l-.2-.33A.34.34,0,0,0,102.56,26Zm-.36.21H102v-.41h.2a.21.21,0,0,1,.19.22A.21.21,0,0,1,102.2,26.23Z" fill="#fff"/><path d="M102.16,25.31a.89.89,0,1,0,.88.89h0A.88.88,0,0,0,102.16,25.31Zm0,1.6a.72.72,0,1,1,.71-.72.72.72,0,0,1-.71.72Z" fill="#fff"/><path d="M62.37,46.24H56.64v4.12H55V39.1h1.6v5.7h5.73V39.1H64V50.36h-1.6Z" fill="#fff"/><path d="M69.65,50.58a4.28,4.28,0,0,1-1.76-.34,3.93,3.93,0,0,1-1.35-.93,4.42,4.42,0,0,1-1.17-3,4.47,4.47,0,0,1,.31-1.65,4.17,4.17,0,0,1,.86-1.37,4.1,4.1,0,0,1,1.35-.94,4.81,4.81,0,0,1,3.54,0,4.1,4.1,0,0,1,1.35.94,4.23,4.23,0,0,1,.88,1.37,4.68,4.68,0,0,1,.3,1.65,4.53,4.53,0,0,1-.3,1.63,4.37,4.37,0,0,1-.87,1.37,4.07,4.07,0,0,1-1.36.93A4.34,4.34,0,0,1,69.65,50.58Zm0-1.4a2.67,2.67,0,0,0,2.57-1.76,3.29,3.29,0,0,0,0-2.23,2.87,2.87,0,0,0-.56-.91,2.59,2.59,0,0,0-.87-.63,2.8,2.8,0,0,0-2.27,0,2.52,2.52,0,0,0-.85.63,2.84,2.84,0,0,0-.55.91,3.29,3.29,0,0,0,0,2.23A2.68,2.68,0,0,0,68.52,49,2.6,2.6,0,0,0,69.65,49.18Z" fill="#fff"/><path d="M109.35,50.58a4.28,4.28,0,0,1-1.76-.34,3.9,3.9,0,0,1-1.34-.93,4.2,4.2,0,0,1-.87-1.37,4.32,4.32,0,0,1-.3-1.63,4.68,4.68,0,0,1,.3-1.65,4.2,4.2,0,0,1,.87-1.37,4.06,4.06,0,0,1,1.34-.94,4.81,4.81,0,0,1,3.54,0,4,4,0,0,1,1.36.94,4.23,4.23,0,0,1,.88,1.37,4.68,4.68,0,0,1,.3,1.65,4.53,4.53,0,0,1-.3,1.63,4.23,4.23,0,0,1-.88,1.37,3.93,3.93,0,0,1-1.35.93A4.39,4.39,0,0,1,109.35,50.58Zm0-1.4a2.65,2.65,0,0,0,2.57-1.76,3.17,3.17,0,0,0,0-2.23,2.84,2.84,0,0,0-.55-.91,2.7,2.7,0,0,0-.87-.63,2.83,2.83,0,0,0-2.28,0,2.62,2.62,0,0,0-.85.63,3,3,0,0,0-.55.91,3.29,3.29,0,0,0,0,2.23,2.92,2.92,0,0,0,.55.91,2.74,2.74,0,0,0,.85.62A2.63,2.63,0,0,0,109.35,49.18Z" fill="#fff"/><path d="M85.88,50.35V45.68A2.84,2.84,0,0,0,85.44,44a1.5,1.5,0,0,0-1.28-.58,1.72,1.72,0,0,0-1.45.7,3.44,3.44,0,0,0-.54,2.13v4.13H80.62V45.77A3,3,0,0,0,80.18,44a1.49,1.49,0,0,0-1.26-.57,1.78,1.78,0,0,0-1.45.7,3.39,3.39,0,0,0-.56,2.13v4.13H75.36V42.23h1.55v1.45a2.63,2.63,0,0,1,.86-1.17A2.41,2.41,0,0,1,79.31,42a2.87,2.87,0,0,1,1.75.47,2.38,2.38,0,0,1,.86,1.27,2.47,2.47,0,0,1,.38-.67,2.75,2.75,0,0,1,.58-.55A2.8,2.8,0,0,1,84.54,42a3.27,3.27,0,0,1,1.36.25,2.38,2.38,0,0,1,.89.68,2.61,2.61,0,0,1,.49,1,4.81,4.81,0,0,1,.15,1.25v5.14Z" fill="#fff"/><path d="M90.32,46.72a3.67,3.67,0,0,0,.17,1,2.58,2.58,0,0,0,.45.81,2.06,2.06,0,0,0,.76.55,2.86,2.86,0,0,0,1.15.21,2.16,2.16,0,0,0,1.4-.39,2.14,2.14,0,0,0,.67-.9H96.5a3,3,0,0,1-1.15,1.81,3.81,3.81,0,0,1-1.09.58,4.86,4.86,0,0,1-3.2-.13,3.53,3.53,0,0,1-1.28-.91A3.79,3.79,0,0,1,89,48a5.49,5.49,0,0,1,0-3.37,4,4,0,0,1,.79-1.37,3.37,3.37,0,0,1,1.25-.89A4.25,4.25,0,0,1,92.8,42a3.93,3.93,0,0,1,1.48.28,3.6,3.6,0,0,1,2.29,3.4c0,.12,0,.27,0,.44a4.07,4.07,0,0,1-.06.59Zm2.44-3.5a2.47,2.47,0,0,0-1.72.6,2.27,2.27,0,0,0-.7,1.72h4.72a2.24,2.24,0,0,0-.65-1.7,2.33,2.33,0,0,0-1.65-.62Z" fill="#fff"/><path d="M104.62,48.91v1.45H99V39.12h1.6v9.79Z" fill="#fff"/><path d="M123.32,42.25v8.1h-1.54V49a2.86,2.86,0,0,1-1.18,1.18,3.31,3.31,0,0,1-1.68.43,4,4,0,0,1-1.71-.34,3.82,3.82,0,0,1-1.32-.93,4.35,4.35,0,0,1-.86-1.37,4.53,4.53,0,0,1-.3-1.63,4.68,4.68,0,0,1,.3-1.65,4.46,4.46,0,0,1,.86-1.37,3.92,3.92,0,0,1,1.33-.94,4.35,4.35,0,0,1,1.71-.34,3.56,3.56,0,0,1,1.68.43,2.86,2.86,0,0,1,1.17,1.19V42.25Zm-4.4,7a2.62,2.62,0,0,0,2.51-1.72,3.14,3.14,0,0,0,0-2.18,3,3,0,0,0-.54-.9,2.5,2.5,0,0,0-.86-.61,2.66,2.66,0,0,0-1.11-.23,2.51,2.51,0,0,0-1.11.23,2.39,2.39,0,0,0-.83.61,2.77,2.77,0,0,0-.54.9,3.14,3.14,0,0,0,0,2.18,2.63,2.63,0,0,0,.54.89,2.36,2.36,0,0,0,.83.6,2.51,2.51,0,0,0,1.11.23Z" fill="#fff"/><path d="M124.79,42.25h1.56v1.41a2.75,2.75,0,0,1,1.09-1.2,3.39,3.39,0,0,1,1.77-.44,3.56,3.56,0,0,1,1.46.27,2.37,2.37,0,0,1,1,.8,2.82,2.82,0,0,1,.48,1,5.74,5.74,0,0,1,.14,1.43v4.79h-1.55V46a5.17,5.17,0,0,0-.11-1,2.31,2.31,0,0,0-.35-.84,1.69,1.69,0,0,0-.63-.56,2.41,2.41,0,0,0-2,0,2.11,2.11,0,0,0-.71.62,2.41,2.41,0,0,0-.43.88,3.68,3.68,0,0,0-.15,1v4.18h-1.55Z" fill="#fff"/><path d="M137.56,45.84c.31.1.61.2.9.31a3.23,3.23,0,0,1,.78.41,1.85,1.85,0,0,1,.55.63,1.94,1.94,0,0,1,.21,1,2.22,2.22,0,0,1-.25,1.07,2.05,2.05,0,0,1-.67.76,3,3,0,0,1-1,.46,4.55,4.55,0,0,1-1.27.15,4.32,4.32,0,0,1-1.29-.17,3,3,0,0,1-1.07-.55,2.8,2.8,0,0,1-.74-.93,2.85,2.85,0,0,1-.27-1.29H135A1.5,1.5,0,0,0,135.5,49a2.31,2.31,0,0,0,1.37.39,2.26,2.26,0,0,0,1.2-.28,1,1,0,0,0,.44-.89.78.78,0,0,0-.18-.55,1.85,1.85,0,0,0-.51-.37A5,5,0,0,0,137,47c-.32-.09-.69-.21-1.09-.35s-.61-.2-.88-.31a2.74,2.74,0,0,1-.7-.41,2,2,0,0,1-.46-.61,2.17,2.17,0,0,1,.71-2.67,2.87,2.87,0,0,1,1-.45,4.66,4.66,0,0,1,1.18-.15,3.75,3.75,0,0,1,1.24.2,2.9,2.9,0,0,1,1,.56,2.68,2.68,0,0,1,.66.87,2.55,2.55,0,0,1,.25,1.12h-1.51a1.44,1.44,0,0,0-.42-1.11,1.82,1.82,0,0,0-1.24-.39,1.93,1.93,0,0,0-1.08.29,1,1,0,0,0-.43.85.77.77,0,0,0,.16.5,1.15,1.15,0,0,0,.45.34,6.61,6.61,0,0,0,.74.28Z" fill="#fff"/><path d="M0,485H160V413.91c-43.93-15.84-94-30-160-36.91Z" fill="#006aff"/><rect width="160" height="600" fill="none"/></g></g></g></svg>