<svg xmlns="http://www.w3.org/2000/svg" viewBox="0 0 160 600"><title>cta</title><g id="Layer_2" data-name="Layer 2"><g id="Layer_11" data-name="Layer 11"><path d="M-579.06,91.77h-84.5a2.57,2.57,0,0,0-2.68,2.43v29.15a2.56,2.56,0,0,0,2.68,2.42h106.64a2.56,2.56,0,0,0,2.68-2.42V94.2a2.57,2.57,0,0,0-2.68-2.43Z" transform="translate(690 240)" fill="none" stroke="#fff" stroke-miterlimit="10" stroke-width="1.21"/><path d="M-635.27,110.32h-1.08a4.53,4.53,0,0,1-4.77,3.72,4.83,4.83,0,0,1-5-5.07,5,5,0,0,1,5.19-5.22c2.39,0,4.09,1.42,4.25,3.18h-1.76A2.33,2.33,0,0,0-641,105.2c-2.4,0-3.5,1.73-3.49,3.77a3.33,3.33,0,0,0,3.35,3.62,2.84,2.84,0,0,0,3.08-2.27h-1.89v-1.44h4.66Z" transform="translate(690 240)" fill="#fff"/><path d="M-628.14,111H-633a1.59,1.59,0,0,0,1.82,1.6,1.43,1.43,0,0,0,1.46-.75h1.54a2.81,2.81,0,0,1-3,2.08,3.14,3.14,0,0,1-3.33-3.44,3.14,3.14,0,0,1,3.27-3.43,3,3,0,0,1,3.13,3.1C-628.1,110.46-628.12,110.67-628.14,111Zm-1.46-1.16a1.47,1.47,0,0,0-1.65-1.57,1.56,1.56,0,0,0-1.74,1.57Z" transform="translate(690 240)" fill="#fff"/><path d="M-623,112.45v1.35a7.79,7.79,0,0,1-1.13.08c-.75,0-2.12-.1-2.12-2.3v-3h-1.11v-1.27h1.11v-2h1.53v2h1.5v1.27h-1.5v2.69c0,1.14.35,1.28,1,1.28A5.36,5.36,0,0,0-623,112.45Z" transform="translate(690 240)" fill="#fff"/><path d="M-618.57,111.79H-617c0,.57.54,1,1.33,1,.57,0,.93-.31.93-.77s-.15-.59-.85-.77l-1.3-.35a1.81,1.81,0,0,1-1.43-1.84c0-1.1,1.05-1.92,2.51-1.92s2.57.77,2.57,2h-1.5c0-.54-.42-.86-1.13-.86-.55,0-.94.27-.94.67s.21.59.81.75l1.31.38a1.91,1.91,0,0,1,1.51,1.87c0,1.27-1,2-2.58,2S-618.57,113-618.57,111.79Z" transform="translate(690 240)" fill="#fff"/><path d="M-608.1,112.45v1.35a7.68,7.68,0,0,1-1.13.08c-.74,0-2.12-.1-2.12-2.3v-3h-1.1v-1.27h1.1v-2h1.53v2h1.5v1.27h-1.5v2.69c0,1.14.35,1.28,1,1.28A5.36,5.36,0,0,0-608.1,112.45Z" transform="translate(690 240)" fill="#fff"/><path d="M-607.26,110.53A3.19,3.19,0,0,1-604,107.1a2.38,2.38,0,0,1,2.06,1.05v-.88h1.51v6.53h-1.51v-.88a2.57,2.57,0,0,1-2.1,1A3.13,3.13,0,0,1-607.26,110.53Zm5.36,0a1.88,1.88,0,0,0-1.93-2.07,1.88,1.88,0,0,0-1.9,2.07,1.89,1.89,0,0,0,1.9,2.08A1.88,1.88,0,0,0-601.9,110.53Z" transform="translate(690 240)" fill="#fff"/><path d="M-598.48,107.27h1.53v1.26a1.75,1.75,0,0,1,1.73-1.34,2.58,2.58,0,0,1,.6,0v1.4a5.91,5.91,0,0,0-.6,0c-1.08,0-1.73.81-1.73,2.29v2.89h-1.53Z" transform="translate(690 240)" fill="#fff"/><path d="M-589.35,112.45v1.35a7.84,7.84,0,0,1-1.14.08c-.74,0-2.11-.1-2.11-2.3v-3h-1.11v-1.27h1.11v-2h1.53v2h1.49v1.27h-1.49v2.69c0,1.14.35,1.28,1,1.28A5.48,5.48,0,0,0-589.35,112.45Z" transform="translate(690 240)" fill="#fff"/><path d="M-582.15,111H-587a1.59,1.59,0,0,0,1.82,1.6,1.43,1.43,0,0,0,1.46-.75h1.54a2.81,2.81,0,0,1-3,2.08,3.14,3.14,0,0,1-3.33-3.44,3.14,3.14,0,0,1,3.27-3.43,3,3,0,0,1,3.13,3.1C-582.11,110.46-582.13,110.67-582.15,111Zm-1.46-1.16a1.47,1.47,0,0,0-1.65-1.57,1.56,1.56,0,0,0-1.74,1.57Z" transform="translate(690 240)" fill="#fff"/><path d="M-574.31,104v9.81h-1.52v-.88a2.56,2.56,0,0,1-2.1,1,3.13,3.13,0,0,1-3.21-3.44,3.19,3.19,0,0,1,3.25-3.43,2.37,2.37,0,0,1,2.06,1.05V104Zm-1.46,6.54a1.88,1.88,0,0,0-1.93-2.07,1.89,1.89,0,0,0-1.91,2.07,1.9,1.9,0,0,0,1.91,2.08A1.88,1.88,0,0,0-575.77,110.53Z" transform="translate(690 240)" fill="#fff"/><rect width="160" height="600" fill="none"/></g></g></svg>