<svg xmlns="http://www.w3.org/2000/svg" viewBox="0 0 160 600"><title>txt1a</title><g id="Layer_2" data-name="Layer 2"><g id="Layer_5_copy_2" data-name="Layer 5 copy 2"><path d="M12.25,428.18h3.89V445H12.25Z" fill="#fff"/><path d="M19.28,433.41H23v1.68a3.93,3.93,0,0,1,3.75-2q4.22,0,4.22,4.73V445H27.23v-6c0-1.95-.56-2.84-2-2.84s-2.24,1-2.24,2.74V445H19.28Z" fill="#fff"/><path d="M41,442.05V445a15.14,15.14,0,0,1-2.45.19c-1.73,0-4.11-.38-4.11-4.25v-4.61H32.6v-2.9h1.82V430H38.1v3.43h2.61v2.9H38.1v3.84c0,1.71.69,2,1.61,2A10.13,10.13,0,0,0,41,442.05Z" fill="#fff"/><path d="M43.09,433.41h3.67v2.42A3.24,3.24,0,0,1,50,433.22a3.72,3.72,0,0,1,1,.09v3.41a7.92,7.92,0,0,0-1.1-.07c-2,0-3.05,1.3-3.05,3.86V445H43.09Z" fill="#fff"/><path d="M51.9,439.19c0-3.52,2.44-6.09,6.43-6.09s6.41,2.57,6.41,6.09-2.45,6.1-6.41,6.1S51.9,442.72,51.9,439.19Zm9.19,0a2.77,2.77,0,1,0-2.76,3A2.71,2.71,0,0,0,61.09,439.19Z" fill="#fff"/><path d="M79,428.18V445H75.32v-1.63a4.15,4.15,0,0,1-3.67,1.94c-3.46,0-5.45-2.62-5.45-6.1s2.14-6.09,5.5-6.09a3.94,3.94,0,0,1,3.62,2v-6.89Zm-3.51,11a2.77,2.77,0,1,0-5.52,0,2.77,2.77,0,0,0,2.77,3.05C74.53,442.24,75.46,440.87,75.46,439.19Z" fill="#fff"/><path d="M81.9,440.56v-7.15h3.72v6.34c0,1.58.52,2.44,1.92,2.44,1.56,0,2.23-1,2.23-2.56v-6.22h3.65V445H89.77v-1.66a3.78,3.78,0,0,1-3.6,2C83.38,445.29,81.9,443.56,81.9,440.56Z" fill="#fff"/><path d="M95.55,439.19c0-3.64,2.38-6.09,6.19-6.09,3.46,0,5.72,1.82,6,4.7h-3.67c-.26-1.08-1-1.58-2.3-1.58-1.59,0-2.55,1-2.55,3s1,3,2.55,3c1.34,0,2-.48,2.3-1.49h3.67c-.28,2.81-2.54,4.61-6,4.61C97.93,445.29,95.55,442.84,95.55,439.19Z" fill="#fff"/><path d="M109.42,430.17a2.27,2.27,0,1,1,2.26,2.23A2.21,2.21,0,0,1,109.42,430.17Zm.43,3.24h3.65V445h-3.65Z" fill="#fff"/><path d="M116.55,433.41h3.67v1.68a3.94,3.94,0,0,1,3.75-2q4.22,0,4.22,4.73V445H124.5v-6c0-1.95-.56-2.84-2-2.84s-2.24,1-2.24,2.74V445h-3.67Z" fill="#fff"/><path d="M143.07,433.41v10.82a5.66,5.66,0,0,1-2.23,4.88,7.12,7.12,0,0,1-4.13,1,7.92,7.92,0,0,1-4.17-.94,4.18,4.18,0,0,1-2.07-3.21h3.75c.16.91,1,1.46,2.44,1.46,1.71,0,2.74-.74,2.74-2.81v-1.53a4.08,4.08,0,0,1-3.62,1.87c-3.44,0-5.5-2.5-5.5-5.91s2.21-6,5.54-6a3.9,3.9,0,0,1,3.58,2v-1.66Zm-3.5,5.71a2.77,2.77,0,1,0-2.79,3A2.77,2.77,0,0,0,139.57,439.12Z" fill="#fff"/><rect width="160" height="600" fill="none"/></g></g></svg>