<svg xmlns="http://www.w3.org/2000/svg" viewBox="0 0 160 600"><title>txt1b</title><g id="Layer_2" data-name="Layer 2"><g id="Layer_5_copy" data-name="Layer 5 copy"><path d="M23.41,467.2H14.87c.07,1.51,1.08,2.33,2.71,2.33,1.13,0,1.85-.31,2.16-1h3.6c-.36,2.28-2.69,3.79-5.76,3.79-3.94,0-6.36-2.23-6.36-6.1s2.47-6.09,6.24-6.09c3.6,0,6.05,2.23,6.05,5.49A13,13,0,0,1,23.41,467.2Zm-3.53-2.28a2.18,2.18,0,0,0-2.45-2.35,2.31,2.31,0,0,0-2.56,2.35Z" fill="#fff"/><path d="M25,466.19c0-3.45,2.14-6.09,5.5-6.09a3.94,3.94,0,0,1,3.62,2v-1.66h3.65V472H34.09v-1.63a4.15,4.15,0,0,1-3.67,1.94C27,472.29,25,469.67,25,466.19Zm9.26,0a2.77,2.77,0,1,0-5.52,0,2.77,2.77,0,0,0,2.76,3.05C33.3,469.24,34.23,467.87,34.23,466.19Z" fill="#fff"/><path d="M40,468.5h3.64c0,.79.77,1.34,1.9,1.34.79,0,1.34-.38,1.34-1s-.26-.84-1.24-1.08l-2.43-.6a3.37,3.37,0,0,1-2.9-3.39c0-2.18,2-3.62,4.94-3.62,3.27,0,5.16,1.27,5.16,3.57H46.74c0-.81-.6-1.24-1.59-1.24-.79,0-1.32.38-1.32.93s.34.87,1.28,1.11l2.44.67c1.83.48,2.93,1.58,2.93,3.33,0,2.41-2,3.82-5.06,3.82C42.13,472.29,40,470.75,40,468.5Z" fill="#fff"/><path d="M52.33,457.17a2.21,2.21,0,0,1,2.25-2.26,2.25,2.25,0,1,1,0,4.49A2.2,2.2,0,0,1,52.33,457.17Zm.43,3.24h3.65V472H52.76Z" fill="#fff"/><path d="M70.74,467.2H62.19c.07,1.51,1.08,2.33,2.71,2.33,1.13,0,1.85-.31,2.16-1h3.6c-.36,2.28-2.68,3.79-5.76,3.79-3.93,0-6.36-2.23-6.36-6.1s2.48-6.09,6.24-6.09c3.6,0,6,2.23,6,5.49A12.92,12.92,0,0,1,70.74,467.2Zm-3.53-2.28a2.18,2.18,0,0,0-2.45-2.35,2.33,2.33,0,0,0-2.57,2.35Z" fill="#fff"/><path d="M72.94,460.41h3.68v2.42a3.23,3.23,0,0,1,3.19-2.61,3.72,3.72,0,0,1,1,.09v3.41a8,8,0,0,0-1.11-.07c-2,0-3,1.3-3,3.86V472H72.94Z" fill="#fff"/><rect width="160" height="600" fill="none"/></g></g></svg>