<svg xmlns="http://www.w3.org/2000/svg" viewBox="0 0 160 600"><title>txt2c</title><g id="Layer_2" data-name="Layer 2"><g id="Layer_8" data-name="Layer 8"><path d="M23.63,487.41v11.21A5.46,5.46,0,0,1,22,502.79a6,6,0,0,1-4.25,1.35,6.44,6.44,0,0,1-4.27-1.2A4.1,4.1,0,0,1,12,499.89h3.7c.07,1,.62,1.56,2,1.56s2.23-.79,2.23-2.59v-1.8A3.87,3.87,0,0,1,16.28,499c-3,0-4.27-2-4.27-4.85v-6.72h3.67v6.17c0,1.49.51,2.49,2,2.49S20,494.92,20,493.15v-5.74Z" fill="#fff"/><path d="M25.74,493.19c0-3.52,2.44-6.09,6.43-6.09s6.41,2.57,6.41,6.09-2.45,6.1-6.41,6.1S25.74,496.72,25.74,493.19Zm9.19,0a2.77,2.77,0,1,0-2.76,3A2.71,2.71,0,0,0,34.93,493.19Z" fill="#fff"/><path d="M40.57,494.56v-7.15h3.72v6.34c0,1.58.53,2.44,1.92,2.44,1.56,0,2.23-1,2.23-2.56v-6.22h3.65V499H48.44v-1.66a3.78,3.78,0,0,1-3.6,2C42.06,499.29,40.57,497.56,40.57,494.56Z" fill="#fff"/><path d="M68.31,496.05V499a14.89,14.89,0,0,1-2.44.19c-1.73,0-4.11-.38-4.11-4.25v-4.61H59.94v-2.9h1.82V484h3.67v3.43h2.62v2.9H65.43v3.84c0,1.71.7,2,1.61,2A9.92,9.92,0,0,0,68.31,496.05Z" fill="#fff"/><path d="M70.42,487.41H74.1v2.42a3.24,3.24,0,0,1,3.19-2.61,3.72,3.72,0,0,1,1,.09v3.41a7.92,7.92,0,0,0-1.1-.07c-2,0-3.05,1.3-3.05,3.86V499H70.42Z" fill="#fff"/><path d="M80.1,494.56v-7.15h3.72v6.34c0,1.58.53,2.44,1.92,2.44,1.56,0,2.23-1,2.23-2.56v-6.22h3.65V499H88v-1.66a3.78,3.78,0,0,1-3.6,2C81.58,499.29,80.1,497.56,80.1,494.56Z" fill="#fff"/><path d="M93.82,495.5h3.65c0,.79.77,1.34,1.9,1.34.79,0,1.34-.38,1.34-1s-.26-.84-1.25-1.08l-2.42-.6a3.37,3.37,0,0,1-2.9-3.39c0-2.18,2-3.62,4.94-3.62,3.26,0,5.16,1.27,5.16,3.57h-3.62c0-.81-.6-1.24-1.59-1.24-.79,0-1.32.38-1.32.93s.34.87,1.27,1.11l2.45.67c1.83.48,2.93,1.58,2.93,3.33,0,2.41-2,3.82-5.06,3.82C96,499.29,93.82,497.75,93.82,495.5Z" fill="#fff"/><path d="M113.82,496.05V499a15.14,15.14,0,0,1-2.45.19c-1.73,0-4.11-.38-4.11-4.25v-4.61h-1.82v-2.9h1.82V484h3.68v3.43h2.61v2.9h-2.61v3.84c0,1.71.69,2,1.6,2A10.19,10.19,0,0,0,113.82,496.05Z" fill="#fff"/><path d="M115.78,496.87a2.38,2.38,0,1,1,2.38,2.35A2.36,2.36,0,0,1,115.78,496.87Z" fill="#fff"/><rect width="160" height="600" fill="none"/></g></g></svg>