<svg xmlns="http://www.w3.org/2000/svg" viewBox="0 0 160 600"><title>txt2a</title><g id="Layer_2" data-name="Layer 2"><g id="Layer_8_copy_2" data-name="Layer 8 copy 2"><path d="M12.25,428.18H22.52v3.26H16.14V436h6.38v3.19H16.14V445H12.25Z" fill="#fff"/><path d="M25.11,433.41h3.68v2.42A3.23,3.23,0,0,1,32,433.22a3.72,3.72,0,0,1,1,.09v3.41a8.07,8.07,0,0,0-1.11-.07c-2,0-3,1.3-3,3.86V445H25.11Z" fill="#fff"/><path d="M33.92,439.19c0-3.52,2.45-6.09,6.43-6.09s6.41,2.57,6.41,6.09-2.45,6.1-6.41,6.1S33.92,442.72,33.92,439.19Zm9.19,0a2.77,2.77,0,1,0-2.76,3A2.71,2.71,0,0,0,43.11,439.19Z" fill="#fff"/><path d="M48.87,433.41h3.68v1.68a3.47,3.47,0,0,1,3.31-2,3.49,3.49,0,0,1,3.62,2.13,4.06,4.06,0,0,1,3.7-2.13c3.31,0,4.1,2.28,4.1,4.7V445H63.59v-6.51c0-1.6-.6-2.28-1.73-2.28s-2,.65-2,2.84v6H56.22v-6.53c0-1.61-.58-2.26-1.71-2.26s-2,.65-2,2.84v6H48.87Z" fill="#fff"/><path d="M75.18,439.19c0-3.45,2.13-6.09,5.49-6.09a4,4,0,0,1,3.63,2v-1.66H88V445H84.3v-1.63a4.18,4.18,0,0,1-3.68,1.94C77.17,445.29,75.18,442.67,75.18,439.19Zm9.26,0a2.77,2.77,0,1,0-5.52,0,2.77,2.77,0,1,0,5.52,0Z" fill="#fff"/><rect width="160" height="600" fill="none"/></g></g></svg>