<svg xmlns="http://www.w3.org/2000/svg" viewBox="0 0 160 600"><title>txt2b</title><g id="Layer_2" data-name="Layer 2"><g id="Layer_8_copy" data-name="Layer 8 copy"><path d="M12.13,455.18H15.8V472H12.13Z" fill="#fff"/><path d="M30.11,467.2H21.56c.07,1.51,1.08,2.33,2.71,2.33,1.13,0,1.85-.31,2.16-1H30c-.36,2.28-2.68,3.79-5.76,3.79-3.93,0-6.36-2.23-6.36-6.1s2.47-6.09,6.24-6.09c3.6,0,6.05,2.23,6.05,5.49A12.92,12.92,0,0,1,30.11,467.2Zm-3.53-2.28a2.18,2.18,0,0,0-2.45-2.35,2.32,2.32,0,0,0-2.57,2.35Z" fill="#fff"/><path d="M32.31,460.41H36v1.68a3.91,3.91,0,0,1,3.74-2q4.22,0,4.22,4.73V472H40.26v-6c0-1.95-.55-2.84-2-2.84s-2.23,1-2.23,2.74V472H32.31Z" fill="#fff"/><path d="M58.81,455.18V472H55.16v-1.63a4.15,4.15,0,0,1-3.67,1.94c-3.46,0-5.45-2.62-5.45-6.1s2.14-6.09,5.5-6.09a3.94,3.94,0,0,1,3.62,2v-6.89Zm-3.5,11a2.77,2.77,0,1,0-5.52,0,2.77,2.77,0,1,0,5.52,0Z" fill="#fff"/><path d="M73.14,467.2H64.59c.08,1.51,1.08,2.33,2.72,2.33,1.12,0,1.84-.31,2.16-1h3.6c-.36,2.28-2.69,3.79-5.76,3.79-3.94,0-6.37-2.23-6.37-6.1s2.48-6.09,6.25-6.09c3.6,0,6,2.23,6,5.49A12.92,12.92,0,0,1,73.14,467.2Zm-3.53-2.28a2.18,2.18,0,0,0-2.45-2.35,2.33,2.33,0,0,0-2.57,2.35Z" fill="#fff"/><path d="M75.34,460.41H79v2.42a3.24,3.24,0,0,1,3.19-2.61,3.72,3.72,0,0,1,1,.09v3.41a7.92,7.92,0,0,0-1.1-.07c-2,0-3,1.3-3,3.86V472H75.34Z" fill="#fff"/><rect width="160" height="600" fill="none"/></g></g></svg>