<svg xmlns="http://www.w3.org/2000/svg" viewBox="0 0 160 600"><title>txt3</title><g id="Layer_2" data-name="Layer 2"><g id="Layer_12" data-name="Layer 12"><path d="M90.45,235.56h2.88l.84,2.74c.28.91.52,1.75.75,2.62h0c.24-.85.49-1.75.76-2.62l.88-2.74h2.13l.86,2.74c.3.94.51,1.75.75,2.62h0c.22-.87.47-1.71.74-2.62l.84-2.74h2.68l-2.9,9H99.09l-.72-2.27c-.27-.89-.54-1.79-.76-2.63h0c-.22.84-.49,1.71-.78,2.62l-.73,2.28H93.37Z" fill="#fff"/><rect x="71.02" y="230.79" width="2.92" height="13.81" fill="#fff"/><rect x="76.11" y="230.79" width="2.92" height="13.81" fill="#fff"/><path d="M80.47,240.11a4.91,4.91,0,1,1,4.93,4.79,4.8,4.8,0,0,1-4.93-4.79m7,0a2.11,2.11,0,1,0-2.09,2.26,2.14,2.14,0,0,0,2.09-2.26" fill="#fff"/><polygon points="54.13 232.07 54.13 234.73 59.29 234.73 59.31 234.77 53.98 243.83 53.98 244.6 64.03 244.6 64.03 241.94 58.44 241.94 58.42 241.91 63.76 232.84 63.75 232.84 63.75 232.07 54.13 232.07" fill="#fff"/><path d="M67.35,231a1.64,1.64,0,1,1-1.67,1.64A1.66,1.66,0,0,1,67.35,231m-1.47,4.52H68.8v9H65.89Z" fill="#fff"/><path d="M107.13,234.83a.38.38,0,0,0-.36-.4h-.46v1.14h.19v-.34h.18l.21.34h.22l-.23-.37A.37.37,0,0,0,107.13,234.83Zm-.4.23h-.22v-.46h.22a.23.23,0,0,1,.21.25A.23.23,0,0,1,106.73,235.06Z" fill="#fff"/><path d="M106.68,234a1,1,0,1,0,1,1h0A1,1,0,0,0,106.68,234Zm0,1.78a.79.79,0,0,1-.79-.79.79.79,0,0,1,.79-.8.8.8,0,0,1,.8.8.79.79,0,0,1-.8.79Z" fill="#fff"/><path d="M62.36,257.35H56v4.58H54.19V249.39H56v6.35h6.38v-6.35h1.78v12.54H62.36Z" fill="#fff"/><path d="M70.47,262.19a4.89,4.89,0,0,1-2-.38,4.49,4.49,0,0,1-1.5-1,4.71,4.71,0,0,1-1-1.53,4.91,4.91,0,0,1-.35-1.82,5,5,0,0,1,.35-1.83,4.45,4.45,0,0,1,1-1.53,4.35,4.35,0,0,1,1.5-1,5.26,5.26,0,0,1,3.94,0,4.49,4.49,0,0,1,1.51,1,4.63,4.63,0,0,1,1,1.53,4.79,4.79,0,0,1,.34,1.83,4.71,4.71,0,0,1-.34,1.82,4.63,4.63,0,0,1-1,1.53,4.53,4.53,0,0,1-1.51,1A5,5,0,0,1,70.47,262.19Zm0-1.56a3,3,0,0,0,2.86-2,3.53,3.53,0,0,0,0-2.48,3.25,3.25,0,0,0-.62-1,3,3,0,0,0-2.24-1,2.91,2.91,0,0,0-1.26.26,3,3,0,0,0-.95.7,3.42,3.42,0,0,0-.61,1,3.64,3.64,0,0,0,0,2.48,3.14,3.14,0,0,0,.61,1,3,3,0,0,0,.95.7A3.23,3.23,0,0,0,70.47,260.63Z" fill="#fff"/><path d="M114.7,262.19a4.89,4.89,0,0,1-2-.38,4.49,4.49,0,0,1-1.5-1,4.9,4.9,0,0,1-1.3-3.35,4.79,4.79,0,0,1,.34-1.83,4.45,4.45,0,0,1,1-1.53,4.35,4.35,0,0,1,1.5-1,5.26,5.26,0,0,1,3.94,0,4.53,4.53,0,0,1,1.52,1,4.63,4.63,0,0,1,1,1.53,5.21,5.21,0,0,1,.34,1.83,5.11,5.11,0,0,1-.34,1.82,4.8,4.8,0,0,1-1,1.53,4.68,4.68,0,0,1-1.52,1A5,5,0,0,1,114.7,262.19Zm0-1.56a3,3,0,0,0,2.86-2,3.64,3.64,0,0,0,0-2.48,3.25,3.25,0,0,0-.62-1,3,3,0,0,0-2.24-1,2.91,2.91,0,0,0-1.26.26,2.86,2.86,0,0,0-1,.7,3.22,3.22,0,0,0-.61,1,3.64,3.64,0,0,0,0,2.48,3,3,0,0,0,1.56,1.71A3.19,3.19,0,0,0,114.7,260.63Z" fill="#fff"/><path d="M88.55,261.93v-5.2a3.11,3.11,0,0,0-.49-1.91,1.68,1.68,0,0,0-1.43-.65A1.93,1.93,0,0,0,85,255a3.86,3.86,0,0,0-.6,2.37v4.61H82.69v-5.11a3.3,3.3,0,0,0-.49-2,1.63,1.63,0,0,0-1.4-.63,2,2,0,0,0-1.62.77,3.79,3.79,0,0,0-.62,2.37v4.61H76.83v-9.05h1.73v1.62a2.79,2.79,0,0,1,1-1.31,2.71,2.71,0,0,1,1.71-.54,3.15,3.15,0,0,1,2,.53,2.62,2.62,0,0,1,1,1.4,3,3,0,0,1,.42-.74,3.14,3.14,0,0,1,.65-.61,3.3,3.3,0,0,1,.84-.42,2.83,2.83,0,0,1,1-.16,3.62,3.62,0,0,1,1.52.28,2.54,2.54,0,0,1,1,.75,3.07,3.07,0,0,1,.54,1.14,5.48,5.48,0,0,1,.17,1.4v5.72Z" fill="#fff"/><path d="M93.5,257.88a3.67,3.67,0,0,0,.19,1.09,2.42,2.42,0,0,0,.5.9,2.28,2.28,0,0,0,.85.62,2.94,2.94,0,0,0,1.28.23,2.39,2.39,0,0,0,1.55-.43,2.28,2.28,0,0,0,.75-1h1.76a3.37,3.37,0,0,1-1.28,2,4.34,4.34,0,0,1-1.22.65,5.13,5.13,0,0,1-1.56.24,5,5,0,0,1-2-.38,3.91,3.91,0,0,1-1.42-1,4.23,4.23,0,0,1-.85-1.52,6.06,6.06,0,0,1-.28-1.85,6.14,6.14,0,0,1,.3-1.9,4.6,4.6,0,0,1,.87-1.52,3.91,3.91,0,0,1,1.41-1,4.61,4.61,0,0,1,1.91-.36,4.28,4.28,0,0,1,1.65.31,4,4,0,0,1,2.55,3.79c0,.13,0,.29,0,.48a4.93,4.93,0,0,1-.07.66Zm2.72-3.9a2.77,2.77,0,0,0-1.92.67,2.58,2.58,0,0,0-.79,1.92h5.27a2.5,2.5,0,0,0-.73-1.9,2.57,2.57,0,0,0-1.83-.69Z" fill="#fff"/><path d="M109.43,260.32v1.61h-6.29V249.42h1.79v10.9Z" fill="#fff"/><path d="M130.26,252.9v9h-1.72v-1.53a3.23,3.23,0,0,1-1.32,1.32,3.8,3.8,0,0,1-1.87.48,4.61,4.61,0,0,1-1.9-.38,4.37,4.37,0,0,1-1.47-1,5,5,0,0,1-1.29-3.35,5,5,0,0,1,1.29-3.36,4.27,4.27,0,0,1,1.48-1,4.61,4.61,0,0,1,1.9-.38,3.8,3.8,0,0,1,1.87.48,3.15,3.15,0,0,1,1.31,1.32V252.9Zm-4.91,7.76a2.93,2.93,0,0,0,2.8-1.92,3.5,3.5,0,0,0,0-2.43,3,3,0,0,0-.6-1,2.91,2.91,0,0,0-1-.68,3,3,0,0,0-1.25-.26,2.92,2.92,0,0,0-1.23.26,2.73,2.73,0,0,0-.93.68,3.41,3.41,0,0,0-.6,1,3.5,3.5,0,0,0,0,2.43,3.06,3.06,0,0,0,.6,1,2.91,2.91,0,0,0,2.16.93Z" fill="#fff"/><path d="M131.89,252.9h1.73v1.58a3.16,3.16,0,0,1,1.22-1.34,3.72,3.72,0,0,1,2-.5,3.9,3.9,0,0,1,1.64.31,2.57,2.57,0,0,1,1.07.89,3.28,3.28,0,0,1,.54,1.15,6.64,6.64,0,0,1,.16,1.6v5.34h-1.73v-4.8a5.81,5.81,0,0,0-.12-1.17A2.63,2.63,0,0,0,138,255a1.84,1.84,0,0,0-.71-.62,2.62,2.62,0,0,0-2.21,0,2.32,2.32,0,0,0-.8.69,3,3,0,0,0-.48,1,4.57,4.57,0,0,0-.16,1.16v4.66h-1.73Z" fill="#fff"/><path d="M146.11,256.9c.35.11.69.22,1,.34a3.8,3.8,0,0,1,.87.46,2.15,2.15,0,0,1,.61.7,2.09,2.09,0,0,1,.23,1.07,2.47,2.47,0,0,1-.27,1.19,2.36,2.36,0,0,1-.75.85,3.51,3.51,0,0,1-1.13.51,6,6,0,0,1-1.41.17,5.38,5.38,0,0,1-1.44-.2,3.54,3.54,0,0,1-1.19-.61,3,3,0,0,1-.82-1,3.28,3.28,0,0,1-.31-1.44h1.7a1.7,1.7,0,0,0,.61,1.47,2.65,2.65,0,0,0,1.53.43,2.52,2.52,0,0,0,1.33-.31,1.11,1.11,0,0,0,.5-1,.89.89,0,0,0-.21-.61,1.54,1.54,0,0,0-.57-.41,4.86,4.86,0,0,0-.9-.33c-.37-.1-.77-.23-1.23-.39s-.67-.22-1-.34a3.08,3.08,0,0,1-.78-.46,2.16,2.16,0,0,1-.52-.68,2.44,2.44,0,0,1,.79-3,3.63,3.63,0,0,1,1.08-.49,5,5,0,0,1,1.33-.18,4.68,4.68,0,0,1,1.38.22,3.53,3.53,0,0,1,1.11.64,3,3,0,0,1,.74,1,2.91,2.91,0,0,1,.27,1.24H147a1.58,1.58,0,0,0-.47-1.23,2,2,0,0,0-1.38-.44,2.14,2.14,0,0,0-1.2.32,1.08,1.08,0,0,0-.48.94.85.85,0,0,0,.17.56,1.39,1.39,0,0,0,.51.39,8.11,8.11,0,0,0,.82.31Z" fill="#fff"/><rect width="160" height="600" fill="none"/></g></g></svg>