<svg xmlns="http://www.w3.org/2000/svg" viewBox="0 0 300 250"><defs><style>.cls-1,.cls-3{fill:none;}.cls-1{stroke:#fff;stroke-miterlimit:10;stroke-width:1.21px;}.cls-2{fill:#fff;}</style></defs><title>cta</title><g id="Layer_2" data-name="Layer 2"><g id="cta"><path class="cls-1" d="M181.18,162.82H96.68A2.56,2.56,0,0,0,94,165.24v29.15a2.57,2.57,0,0,0,2.68,2.43H203.32a2.57,2.57,0,0,0,2.68-2.43V165.24a2.56,2.56,0,0,0-2.68-2.42Z"/><path class="cls-2" d="M125,181.37h-1.08a4.52,4.52,0,0,1-4.78,3.71,4.83,4.83,0,0,1-5-5.07,5,5,0,0,1,5.18-5.21c2.4,0,4.09,1.41,4.26,3.18h-1.76a2.34,2.34,0,0,0-2.5-1.74c-2.39,0-3.5,1.74-3.48,3.77a3.33,3.33,0,0,0,3.34,3.63,2.86,2.86,0,0,0,3.09-2.27h-1.89v-1.44H125Z"/><path class="cls-2" d="M132.09,182.08h-4.84a1.59,1.59,0,0,0,1.82,1.6,1.43,1.43,0,0,0,1.45-.74h1.55a2.8,2.8,0,0,1-3,2.07,3.43,3.43,0,0,1-.06-6.86,3,3,0,0,1,3.13,3.09C132.14,181.51,132.12,181.72,132.09,182.08Zm-1.45-1.16a1.48,1.48,0,0,0-1.66-1.57,1.56,1.56,0,0,0-1.73,1.57Z"/><path class="cls-2" d="M137.26,183.5v1.34a6.46,6.46,0,0,1-1.14.09c-.74,0-2.11-.1-2.11-2.3v-3H132.9v-1.27H134v-2h1.52v2H137v1.27h-1.5v2.69c0,1.14.36,1.28,1,1.28A5.48,5.48,0,0,0,137.26,183.5Z"/><path class="cls-2" d="M141.67,182.84h1.52c0,.56.55.95,1.33.95.58,0,.94-.3.94-.77s-.15-.59-.85-.77l-1.31-.35a1.79,1.79,0,0,1-1.42-1.83c0-1.11,1.05-1.92,2.5-1.92,1.6,0,2.58.77,2.58,2h-1.5c0-.55-.42-.87-1.13-.87-.55,0-.94.28-.94.67s.21.59.81.76l1.3.38A1.9,1.9,0,0,1,147,183c0,1.28-1,2-2.58,2S141.67,184.09,141.67,182.84Z"/><path class="cls-2" d="M152.14,183.5v1.34a6.46,6.46,0,0,1-1.14.09c-.74,0-2.11-.1-2.11-2.3v-3h-1.11v-1.27h1.11v-2h1.53v2h1.5v1.27h-1.5v2.69c0,1.14.35,1.28,1,1.28A5.36,5.36,0,0,0,152.14,183.5Z"/><path class="cls-2" d="M153,181.58a3.19,3.19,0,0,1,3.25-3.43,2.38,2.38,0,0,1,2.06,1v-.88h1.51v6.52h-1.51V184a2.56,2.56,0,0,1-2.1,1A3.11,3.11,0,0,1,153,181.58Zm5.36,0a1.93,1.93,0,1,0-1.93,2.07A1.88,1.88,0,0,0,158.34,181.58Z"/><path class="cls-2" d="M161.76,178.32h1.52v1.26a1.77,1.77,0,0,1,1.74-1.35,2.58,2.58,0,0,1,.6.06v1.4a4,4,0,0,0-.6,0c-1.08,0-1.74.81-1.74,2.3v2.88h-1.52Z"/><path class="cls-2" d="M170.89,183.5v1.34a6.46,6.46,0,0,1-1.14.09c-.74,0-2.11-.1-2.11-2.3v-3h-1.11v-1.27h1.11v-2h1.52v2h1.5v1.27h-1.5v2.69c0,1.14.35,1.28,1,1.28A5.61,5.61,0,0,0,170.89,183.5Z"/><path class="cls-2" d="M178.08,182.08h-4.84a1.59,1.59,0,0,0,1.82,1.6,1.43,1.43,0,0,0,1.45-.74h1.55a2.8,2.8,0,0,1-3,2.07,3.43,3.43,0,0,1-.06-6.86,3,3,0,0,1,3.12,3.09C178.12,181.51,178.11,181.72,178.08,182.08Zm-1.45-1.16a1.48,1.48,0,0,0-1.66-1.57,1.56,1.56,0,0,0-1.73,1.57Z"/><path class="cls-2" d="M185.92,175v9.8h-1.51V184a2.55,2.55,0,0,1-2.1,1,3.12,3.12,0,0,1-3.21-3.43,3.19,3.19,0,0,1,3.25-3.43,2.38,2.38,0,0,1,2.06,1V175Zm-1.45,6.54a1.93,1.93,0,1,0-1.94,2.07A1.88,1.88,0,0,0,184.47,181.58Z"/><rect class="cls-3" width="300" height="250"/></g></g></svg>