<svg xmlns="http://www.w3.org/2000/svg" viewBox="0 0 300 249.5"><defs><style>.cls-1{fill:#ffd237;}.cls-2{fill:#006aff;}.cls-3{fill:#fff;}.cls-4{fill:none;}</style></defs><title>footer</title><g id="Layer_2" data-name="Layer 2"><g id="footer"><path class="cls-1" d="M300,104.5c-35.59.34-71.17,6.35-112,17.21-42.08,11.19-97.62,17.42-118.78,18.57H69L300,168.5Z"/><path class="cls-2" d="M300,144.59c-99.73-27.36-188.22-40.47-300-35.44V249.5H300Z"/><path class="cls-3" d="M144.55,219h-9.49v6.89h-2.7V207.1h2.7v9.48h9.49V207.1h2.69v18.77h-2.69Z"/><path class="cls-3" d="M156.73,226.23a7.36,7.36,0,0,1-2.93-.57,6.61,6.61,0,0,1-2.24-1.56,7.12,7.12,0,0,1-1.44-2.27,7.56,7.56,0,0,1,0-5.46,7.07,7.07,0,0,1,1.43-2.29,6.57,6.57,0,0,1,2.25-1.55,7.19,7.19,0,0,1,2.93-.57,7.33,7.33,0,0,1,3,.57,6.77,6.77,0,0,1,3.71,3.84,7.56,7.56,0,0,1,0,5.46A6.88,6.88,0,0,1,162,224.1a6.78,6.78,0,0,1-2.26,1.56A7.5,7.5,0,0,1,156.73,226.23Zm0-2.34a4.47,4.47,0,0,0,3.35-1.42A4.54,4.54,0,0,0,161,221a5.38,5.38,0,0,0,0-3.71,4.75,4.75,0,0,0-.93-1.52,4.42,4.42,0,0,0-1.45-1,4.62,4.62,0,0,0-1.9-.39,4.5,4.5,0,0,0-1.88.39,4.21,4.21,0,0,0-1.42,1,4.83,4.83,0,0,0-.92,1.52,5.38,5.38,0,0,0,0,3.71,4.68,4.68,0,0,0,.92,1.51,4.15,4.15,0,0,0,1.42,1A4.35,4.35,0,0,0,156.73,223.89Z"/><path class="cls-3" d="M222.81,226.23a7.36,7.36,0,0,1-2.93-.57,6.61,6.61,0,0,1-2.24-1.56,7.12,7.12,0,0,1-1.44-2.27,7.56,7.56,0,0,1,0-5.46,6.94,6.94,0,0,1,1.44-2.29,6.44,6.44,0,0,1,2.24-1.55,7.89,7.89,0,0,1,5.89,0,6.77,6.77,0,0,1,3.71,3.84,7.56,7.56,0,0,1,0,5.46A7,7,0,0,1,228,224.1a6.78,6.78,0,0,1-2.26,1.56A7.5,7.5,0,0,1,222.81,226.23Zm0-2.36a4.47,4.47,0,0,0,3.35-1.42,4.6,4.6,0,0,0,.93-1.51,5.38,5.38,0,0,0,0-3.71,4.75,4.75,0,0,0-.93-1.52,4.57,4.57,0,0,0-1.45-1.05,4.62,4.62,0,0,0-1.9-.39,4.5,4.5,0,0,0-1.88.39,4.34,4.34,0,0,0-1.42,1.05,4.83,4.83,0,0,0-.92,1.52,5.5,5.5,0,0,0,0,3.71,4.68,4.68,0,0,0,.92,1.51,4.32,4.32,0,0,0,3.3,1.42Z"/><path class="cls-3" d="M183.79,225.87V218.1a4.68,4.68,0,0,0-.73-2.85,2.53,2.53,0,0,0-2.14-1,2.89,2.89,0,0,0-2.42,1.16,5.86,5.86,0,0,0-.9,3.54v6.88H175v-7.62a4.93,4.93,0,0,0-.74-3,2.48,2.48,0,0,0-2.1-1,2.93,2.93,0,0,0-2.43,1.16,5.59,5.59,0,0,0-.93,3.54v6.78h-2.59V212.29h2.59v2.41a4.17,4.17,0,0,1,1.43-1.95,4,4,0,0,1,2.56-.82,4.75,4.75,0,0,1,2.91.79,4,4,0,0,1,1.43,2.09,4.41,4.41,0,0,1,1.59-2,4.75,4.75,0,0,1,2.75-.87,5.38,5.38,0,0,1,2.25.42,3.94,3.94,0,0,1,1.49,1.13,4.51,4.51,0,0,1,.82,1.69,8.58,8.58,0,0,1,.25,2.08v8.52Z"/><path class="cls-3" d="M191.13,219.78a5.57,5.57,0,0,0,.28,1.63,4.07,4.07,0,0,0,.75,1.35,3.54,3.54,0,0,0,1.27.93,4.75,4.75,0,0,0,1.92.34,3.29,3.29,0,0,0,3.44-2.15h2.64a5.16,5.16,0,0,1-1.92,3,6.28,6.28,0,0,1-1.83,1,7.09,7.09,0,0,1-2.33.36,7.37,7.37,0,0,1-3-.57,6.1,6.1,0,0,1-2.13-1.53,6.35,6.35,0,0,1-1.25-2.26,9.26,9.26,0,0,1,0-5.61,6.41,6.41,0,0,1,1.3-2.28,5.85,5.85,0,0,1,2.09-1.49,7.15,7.15,0,0,1,2.86-.54,6.49,6.49,0,0,1,2.47.46,6.06,6.06,0,0,1,3.82,5.67c0,.2,0,.44,0,.72s-.05.66-.1,1Zm4.07-5.85a4.08,4.08,0,0,0-2.87,1,3.79,3.79,0,0,0-1.17,2.85H199a3.67,3.67,0,0,0-1.1-2.82,3.8,3.8,0,0,0-2.73-1Z"/><path class="cls-3" d="M215,223.48v2.39h-9.38V207.2h2.69v16.28Z"/><path class="cls-3" d="M246.11,212.39v13.48h-2.69v-2.34a4.21,4.21,0,0,1-1.89,2,5.69,5.69,0,0,1-2.8.71,7,7,0,0,1-2.84-.56,6.69,6.69,0,0,1-2.19-1.56,7.09,7.09,0,0,1-1.43-2.27,7.56,7.56,0,0,1,0-5.46,7.33,7.33,0,0,1,1.42-2.29,6.66,6.66,0,0,1,2.2-1.55,6.8,6.8,0,0,1,2.84-.57,5.71,5.71,0,0,1,2.8.71,9.34,9.34,0,0,1,2,2v-2.26Zm-7.38,11.55a4.38,4.38,0,0,0,3.28-1.39,4.76,4.76,0,0,0,.91-1.47,5.27,5.27,0,0,0,0-3.63A4.9,4.9,0,0,0,242,216a4.36,4.36,0,0,0-1.42-1,4.43,4.43,0,0,0-1.86-.38,4.34,4.34,0,0,0-1.84.38,4.14,4.14,0,0,0-1.39,1,4.87,4.87,0,0,0-.9,1.5,5.39,5.39,0,0,0,0,3.63,4.73,4.73,0,0,0,.9,1.47A4.21,4.21,0,0,0,238.73,223.94Z"/><path class="cls-3" d="M248.51,212.39h2.6v2.36a4.57,4.57,0,0,1,1.82-2,5.52,5.52,0,0,1,2.95-.74,5.82,5.82,0,0,1,2.45.46,3.86,3.86,0,0,1,1.62,1.32,4.88,4.88,0,0,1,.8,1.73,9.92,9.92,0,0,1,.24,2.38v8H258.4V218.7a8.42,8.42,0,0,0-.18-1.74,3.77,3.77,0,0,0-.59-1.4,2.77,2.77,0,0,0-1.06-.92,3.89,3.89,0,0,0-3.31,0,3.6,3.6,0,0,0-1.2,1,4.48,4.48,0,0,0-.72,1.47,6,6,0,0,0-.23,1.73v7h-2.6Z"/><path class="cls-3" d="M269.75,218.38c.52.16,1,.33,1.51.51a5.08,5.08,0,0,1,1.3.69,3,3,0,0,1,.91,1,3.28,3.28,0,0,1,.35,1.59,3.78,3.78,0,0,1-.4,1.78,3.63,3.63,0,0,1-1.12,1.28,5.31,5.31,0,0,1-1.7.76,8.34,8.34,0,0,1-2.11.25,7.12,7.12,0,0,1-2.15-.3,5.06,5.06,0,0,1-1.79-.91,4.58,4.58,0,0,1-1.22-1.54,4.85,4.85,0,0,1-.47-2.15h2.55a2.5,2.5,0,0,0,.91,2.2,3.87,3.87,0,0,0,2.29.64,3.69,3.69,0,0,0,2-.46,1.64,1.64,0,0,0,.74-1.48,1.45,1.45,0,0,0-.3-.92,2.7,2.7,0,0,0-.86-.61,8.21,8.21,0,0,0-1.36-.5c-.54-.15-1.15-.34-1.83-.58-.52-.16-1-.33-1.45-.51a4.2,4.2,0,0,1-1.17-.69,3,3,0,0,1-.78-1,3.53,3.53,0,0,1-.28-1.52,3.47,3.47,0,0,1,1.47-2.93,5.07,5.07,0,0,1,1.62-.74,7.3,7.3,0,0,1,2-.26,6.28,6.28,0,0,1,2.07.33,4.91,4.91,0,0,1,1.66.95,4.53,4.53,0,0,1,1.11,1.45,4.22,4.22,0,0,1,.4,1.85h-2.52a2.36,2.36,0,0,0-.7-1.84,3,3,0,0,0-2.05-.64,3.18,3.18,0,0,0-1.8.48,1.59,1.59,0,0,0-.72,1.41,1.36,1.36,0,0,0,.25.83,2,2,0,0,0,.77.57,9.16,9.16,0,0,0,1.23.47Z"/><path class="cls-3" d="M104.9,212.29h4.28l1.25,4.08c.41,1.35.78,2.62,1.11,3.91h.06c.35-1.26.72-2.61,1.13-3.91l1.3-4.08h3.19l1.28,4.08c.44,1.4.76,2.62,1.12,3.91h0c.34-1.29.7-2.54,1.11-3.91l1.25-4.08h4l-4.32,13.48h-3.92l-1.07-3.37c-.41-1.33-.8-2.67-1.14-3.92h0c-.34,1.25-.73,2.54-1.16,3.89l-1.09,3.4h-4Z"/><rect class="cls-3" x="76.04" y="205.2" width="4.29" height="20.57"/><rect class="cls-3" x="83.63" y="205.2" width="4.29" height="20.57"/><path class="cls-3" d="M90.07,219.12a7.3,7.3,0,1,1,7.32,7.11,7.13,7.13,0,0,1-7.32-7.11m10.44,0a3.14,3.14,0,1,0-3.12,3.35,3.18,3.18,0,0,0,3.12-3.35"/><polygon class="cls-3" points="50.87 207.1 50.87 211.09 58.59 211.09 58.62 211.15 50.67 224.63 50.67 225.77 65.65 225.77 65.65 221.88 57.31 221.88 57.28 221.78 65.21 208.3 65.15 208.3 65.15 207.1 50.87 207.1"/><path class="cls-3" d="M70.55,205.62a2.43,2.43,0,1,1-2.47,2.44,2.48,2.48,0,0,1,2.47-2.44m-2.1,6.67h4.29v13.48H68.45Z"/><path class="cls-3" d="M37.2,209.86a.21.21,0,0,1,.21.07c.35.37,1.5,1.66,1.81,2a.11.11,0,0,1,0,.16h0a39.33,39.33,0,0,0-5.79,6.15s0,0,0,0a67.44,67.44,0,0,1,10.45-3.56V212L34,204.14,24.11,212v3.87A69.79,69.79,0,0,1,37.2,209.86Z"/><path class="cls-3" d="M29.71,223.62a.15.15,0,0,1-.21,0l-1.94-2.11c0-.06-.06-.09,0-.19a34.75,34.75,0,0,1,5.92-7s0-.05,0,0a81.86,81.86,0,0,0-9.35,4.55v7H43.88v-7.56A73.16,73.16,0,0,0,29.71,223.62Z"/><path class="cls-3" d="M128.84,210.36a.65.65,0,0,0-.6-.67h-.77v1.9h.3V211h.32l.37.6h.35l-.38-.61A.64.64,0,0,0,128.84,210.36Zm-.69.43h-.38V210h.38a.4.4,0,0,1,.37.43A.39.39,0,0,1,128.15,210.79Z"/><path class="cls-3" d="M128.09,209.07a1.64,1.64,0,1,0,1.64,1.63A1.63,1.63,0,0,0,128.09,209.07Zm-.05,3a1.32,1.32,0,1,1,1.33-1.33h0A1.34,1.34,0,0,1,128,212Z"/><rect class="cls-4" width="300" height="249"/></g></g></svg>