<svg xmlns="http://www.w3.org/2000/svg" viewBox="0 0 300 250"><defs><style>.cls-1{fill:#fff;}.cls-2{fill:none;}</style></defs><title>house</title><g id="Layer_2" data-name="Layer 2"><g id="Layer_10_copy_2" data-name="Layer 10 copy 2"><path class="cls-1" d="M77.32,61.75a.34.34,0,0,1,.38.15c.63.71,2.67,3.2,3.23,3.88a.21.21,0,0,1-.05.32,73.35,73.35,0,0,0-11.25,11c-.06.07,0,.07,0,.06a128.18,128.18,0,0,1,19.61-5.83v-6L70.84,50.83,52.39,65.39v6.52C58.11,68.51,71.33,63.24,77.32,61.75Z"/><path class="cls-1" d="M62.33,86.79a.31.31,0,0,1-.4-.06l-3.44-4.1c-.09-.11-.1-.17,0-.35,2.66-3.89,8.08-10,11.54-12.52.06-.05,0-.09,0-.07a153.81,153.81,0,0,0-17.63,7.72V91.33H89.26V77.94C84.22,78.79,69.17,83.27,62.33,86.79Z"/><rect class="cls-2" width="300" height="250"/></g></g></svg>