<svg xmlns="http://www.w3.org/2000/svg" viewBox="0 0 300 250"><defs><style>.cls-1{fill:#fff;}.cls-2{fill:none;}</style></defs><title>tagline</title><g id="Layer_2" data-name="Layer 2"><g id="tagline"><g id="tagline-2" data-name="tagline"><path class="cls-1" d="M57.54,111l2.3,3.72H58.16L56,111.24H53.61v3.51H52.14V103.43H56.2a3.95,3.95,0,0,1,1.34,7.6Zm-3.93-1.12h2.51a2.59,2.59,0,0,0,0-5.16H53.61Z"/><path class="cls-1" d="M68.52,111.43H62.75a2.16,2.16,0,0,0,2.34,2.29,2,2,0,0,0,2-1.1h1.4a3.19,3.19,0,0,1-3.38,2.32c-2.29,0-3.73-1.52-3.73-3.93A3.57,3.57,0,0,1,65,107.1a3.36,3.36,0,0,1,3.52,3.51A8.16,8.16,0,0,1,68.52,111.43Zm-1.34-1.08A2,2,0,0,0,65,108.23a2.11,2.11,0,0,0-2.26,2.12Z"/><path class="cls-1" d="M70.2,104.88A1.14,1.14,0,1,1,71.35,106,1.12,1.12,0,0,1,70.2,104.88Zm.45,2.41H72v7.46H70.65Z"/><path class="cls-1" d="M74.74,107.29h1.41v1.36a2.27,2.27,0,0,1,2.23-1.55,2.22,2.22,0,0,1,2.38,1.6,2.52,2.52,0,0,1,2.41-1.6c2,0,2.68,1.29,2.68,2.93v4.72h-1.4V110.3c0-1.4-.62-2-1.62-2s-1.83.75-1.83,2.56v3.88H79.59v-4.33c0-1.62-.69-2.11-1.6-2.11-1.14,0-1.84.81-1.84,2.56v3.88H74.74Z"/><path class="cls-1" d="M87.87,111a3.66,3.66,0,0,1,3.72-3.93,2.87,2.87,0,0,1,2.62,1.52v-1.33H95.6v7.46H94.21v-1.31a3,3,0,0,1-2.65,1.5A3.58,3.58,0,0,1,87.87,111Zm6.41,0a2.51,2.51,0,1,0-5,0,2.51,2.51,0,1,0,5,0Z"/><path class="cls-1" d="M105.43,107.29v7.27a3.73,3.73,0,0,1-1.29,3.13,4.25,4.25,0,0,1-2.57.7,4.6,4.6,0,0,1-2.66-.73,2.5,2.5,0,0,1-1.1-2h1.47c.1.87.85,1.52,2.27,1.52,1.62,0,2.49-.78,2.49-2.56v-1.21a3,3,0,0,1-2.65,1.5A3.64,3.64,0,0,1,97.7,111a3.7,3.7,0,0,1,3.72-3.93,2.85,2.85,0,0,1,2.62,1.52v-1.33ZM104.1,111a2.51,2.51,0,1,0-2.52,2.65A2.49,2.49,0,0,0,104.1,111Z"/><path class="cls-1" d="M107.67,104.88a1.14,1.14,0,1,1,1.15,1.14A1.12,1.12,0,0,1,107.67,104.88Zm.46,2.41h1.39v7.46h-1.39Z"/><path class="cls-1" d="M112.22,107.29h1.4v1.38a2.64,2.64,0,0,1,2.61-1.57c1.83,0,2.76,1.07,2.76,3.06v4.59H117.6v-4c0-1.66-.55-2.46-1.87-2.46s-2.11,1-2.11,2.49v4h-1.4Z"/><path class="cls-1" d="M128.18,111.43H122.4a2.17,2.17,0,0,0,2.35,2.29,2,2,0,0,0,2-1.1h1.41a3.2,3.2,0,0,1-3.38,2.32c-2.3,0-3.74-1.52-3.74-3.93a3.57,3.57,0,0,1,3.67-3.91,3.36,3.36,0,0,1,3.53,3.51A8.16,8.16,0,0,1,128.18,111.43Zm-1.35-1.08a2,2,0,0,0-2.16-2.12,2.12,2.12,0,0,0-2.27,2.12Z"/><path class="cls-1" d="M138.73,113.49v1.24a5.82,5.82,0,0,1-1.26.12c-.87,0-2.28-.16-2.28-2.57v-3.81h-1.34v-1.18h1.34v-2.36h1.41v2.36h1.87v1.18H136.6V112c0,1.42.48,1.62,1.19,1.62A5.21,5.21,0,0,0,138.73,113.49Z"/><path class="cls-1" d="M147.51,110.16v4.59h-1.4v-4c0-1.66-.54-2.46-1.88-2.46s-2.1,1-2.1,2.49v4h-1.41V103.43h1.41v5.24a2.63,2.63,0,0,1,2.6-1.57C146.57,107.1,147.51,108.17,147.51,110.16Z"/><path class="cls-1" d="M156.7,111.43h-5.78a2.16,2.16,0,0,0,2.35,2.29,2,2,0,0,0,2-1.1h1.41a3.2,3.2,0,0,1-3.38,2.32c-2.3,0-3.74-1.52-3.74-3.93a3.57,3.57,0,0,1,3.67-3.91,3.37,3.37,0,0,1,3.53,3.51A8.16,8.16,0,0,1,156.7,111.43Zm-1.35-1.08a2,2,0,0,0-2.16-2.12,2.12,2.12,0,0,0-2.27,2.12Z"/><path class="cls-1" d="M162.11,107.29h1.53l1.78,5.46,1.83-5.46h1.51l1.81,5.46,1.79-5.46h1.54l-2.75,7.46H170L168,109l-2,5.73h-1.18Z"/><path class="cls-1" d="M174.57,111a3.66,3.66,0,0,1,3.72-3.93,2.87,2.87,0,0,1,2.62,1.52v-1.33h1.39v7.46h-1.39v-1.31a3,3,0,0,1-2.65,1.5A3.58,3.58,0,0,1,174.57,111Zm6.41,0a2.51,2.51,0,1,0-5,0,2.51,2.51,0,1,0,5,0Z"/><path class="cls-1" d="M191.73,107.29v7.61a3.53,3.53,0,0,1-1,2.68,3.65,3.65,0,0,1-2.45.81,3.83,3.83,0,0,1-2.52-.78,2.49,2.49,0,0,1-.84-1.92h1.41c.06.9.55,1.52,1.94,1.52s2.07-.71,2.07-2.41v-1.39a2.74,2.74,0,0,1-2.59,1.52c-1.94,0-2.83-1.3-2.83-3.19v-4.45h1.39v4.16c0,1.33.44,2.23,1.91,2.23s2.12-1.21,2.12-2.55v-3.84Z"/><path class="cls-1" d="M205.62,110.16v4.59h-1.41v-4c0-1.66-.53-2.46-1.88-2.46s-2.1,1-2.1,2.49v4h-1.41V103.43h1.41v5.24a2.63,2.63,0,0,1,2.6-1.57C204.68,107.1,205.62,108.17,205.62,110.16Z"/><path class="cls-1" d="M207.63,111a3.89,3.89,0,1,1,3.89,3.91A3.74,3.74,0,0,1,207.63,111Zm6.36,0a2.49,2.49,0,1,0-2.47,2.65A2.44,2.44,0,0,0,214,111Z"/><path class="cls-1" d="M217.48,107.29h1.41v1.36a2.27,2.27,0,0,1,2.23-1.55,2.22,2.22,0,0,1,2.38,1.6,2.52,2.52,0,0,1,2.41-1.6c2,0,2.68,1.29,2.68,2.93v4.72h-1.41V110.3c0-1.4-.61-2-1.61-2s-1.83.75-1.83,2.56v3.88h-1.41v-4.33c0-1.62-.69-2.11-1.6-2.11-1.15,0-1.84.81-1.84,2.56v3.88h-1.41Z"/><path class="cls-1" d="M237.77,111.43H232a2.16,2.16,0,0,0,2.34,2.29,2,2,0,0,0,2-1.1h1.4a3.19,3.19,0,0,1-3.38,2.32c-2.29,0-3.73-1.52-3.73-3.93a3.57,3.57,0,0,1,3.67-3.91,3.36,3.36,0,0,1,3.52,3.51A8.16,8.16,0,0,1,237.77,111.43Zm-1.34-1.08a2,2,0,0,0-2.17-2.12,2.11,2.11,0,0,0-2.26,2.12Z"/><path class="cls-1" d="M239.5,113.68a1.18,1.18,0,0,1,1.16-1.18,1.18,1.18,0,1,1,0,2.36A1.17,1.17,0,0,1,239.5,113.68Z"/></g><rect class="cls-2" width="300" height="250"/></g></g></svg>