<svg xmlns="http://www.w3.org/2000/svg" viewBox="0 0 300 250"><defs><style>.cls-1{fill:#fff;}.cls-2{fill:none;}</style></defs><title>txt1a</title><g id="Layer_2" data-name="Layer 2"><g id="txt1a"><path class="cls-1" d="M25.74,138.18h3.89V155H25.74Z"/><path class="cls-1" d="M32.77,143.41h3.67v1.68a3.92,3.92,0,0,1,3.75-2c2.8,0,4.22,1.58,4.22,4.72V155h-3.7v-6c0-1.94-.55-2.83-2-2.83s-2.23,1-2.23,2.74v6H32.77Z"/><path class="cls-1" d="M54.47,152.05V155a15.14,15.14,0,0,1-2.45.19c-1.73,0-4.11-.38-4.11-4.25v-4.61H46.09v-2.9h1.82V140h3.68v3.44H54.2v2.9H51.59v3.84c0,1.71.69,2,1.6,2A10.19,10.19,0,0,0,54.47,152.05Z"/><path class="cls-1" d="M56.58,143.41h3.67v2.42a3.24,3.24,0,0,1,3.19-2.62,3.67,3.67,0,0,1,1,.1v3.41a7.92,7.92,0,0,0-1.1-.07c-2,0-3,1.29-3,3.86V155H56.58Z"/><path class="cls-1" d="M65.39,149.19c0-3.53,2.44-6.09,6.43-6.09s6.41,2.56,6.41,6.09-2.45,6.1-6.41,6.1S65.39,152.72,65.39,149.19Zm9.19,0a2.77,2.77,0,1,0-2.76,3A2.71,2.71,0,0,0,74.58,149.19Z"/><path class="cls-1" d="M92.46,138.18V155H88.81v-1.64a4.13,4.13,0,0,1-3.67,1.95c-3.46,0-5.45-2.62-5.45-6.1s2.14-6.09,5.5-6.09a4,4,0,0,1,3.62,2v-6.88Zm-3.51,11a2.77,2.77,0,1,0-5.52,0,2.77,2.77,0,0,0,2.76,3.05C88,152.24,89,150.87,89,149.19Z"/><path class="cls-1" d="M95.38,150.56v-7.15h3.73v6.33c0,1.59.52,2.45,1.92,2.45,1.56,0,2.23-1,2.23-2.57v-6.21h3.65V155h-3.65v-1.66a3.8,3.8,0,0,1-3.6,2C96.87,155.29,95.38,153.56,95.38,150.56Z"/><path class="cls-1" d="M109,149.19c0-3.65,2.38-6.09,6.19-6.09,3.46,0,5.72,1.82,6,4.7h-3.67c-.26-1.08-1-1.58-2.3-1.58-1.59,0-2.55,1.05-2.55,3s1,3,2.55,3c1.34,0,2-.48,2.3-1.49h3.67c-.28,2.81-2.54,4.61-6,4.61C111.42,155.29,109,152.84,109,149.19Z"/><path class="cls-1" d="M122.91,140.17a2.27,2.27,0,1,1,2.26,2.23A2.21,2.21,0,0,1,122.91,140.17Zm.43,3.24H127V155h-3.65Z"/><path class="cls-1" d="M130,143.41h3.67v1.68a3.93,3.93,0,0,1,3.75-2c2.81,0,4.22,1.58,4.22,4.72V155H138v-6c0-1.94-.56-2.83-2-2.83s-2.24,1-2.24,2.74v6H130Z"/><path class="cls-1" d="M156.56,143.41v10.82a5.64,5.64,0,0,1-2.23,4.87,7.05,7.05,0,0,1-4.13,1,8.06,8.06,0,0,1-4.18-.94A4.19,4.19,0,0,1,144,156h3.75c.16.92,1,1.47,2.44,1.47,1.71,0,2.74-.74,2.74-2.81V153.1a4.07,4.07,0,0,1-3.63,1.88c-3.43,0-5.49-2.5-5.49-5.91s2.21-6,5.54-6a3.89,3.89,0,0,1,3.58,2v-1.65Zm-3.5,5.71a2.77,2.77,0,1,0-2.79,3A2.77,2.77,0,0,0,153.06,149.12Z"/><path class="cls-1" d="M176.7,150.2h-8.55c.07,1.51,1.08,2.33,2.71,2.33,1.13,0,1.85-.31,2.16-1h3.6c-.36,2.28-2.68,3.79-5.76,3.79-3.93,0-6.36-2.23-6.36-6.1s2.48-6.09,6.25-6.09c3.59,0,6,2.23,6,5.49A12.92,12.92,0,0,1,176.7,150.2Zm-3.53-2.28a2.18,2.18,0,0,0-2.45-2.35,2.32,2.32,0,0,0-2.57,2.35Z"/><path class="cls-1" d="M178.26,149.19c0-3.45,2.13-6.09,5.49-6.09a4,4,0,0,1,3.63,2v-1.65H191V155h-3.65v-1.64a4.16,4.16,0,0,1-3.68,1.95C180.25,155.29,178.26,152.67,178.26,149.19Zm9.26,0a2.77,2.77,0,1,0-5.52,0,2.77,2.77,0,0,0,2.76,3.05A2.74,2.74,0,0,0,187.52,149.19Z"/><path class="cls-1" d="M193.23,151.5h3.65c0,.79.77,1.34,1.9,1.34.79,0,1.34-.38,1.34-1.06,0-.52-.26-.84-1.25-1.08l-2.42-.6a3.37,3.37,0,0,1-2.91-3.38c0-2.18,2-3.62,5-3.62,3.26,0,5.16,1.27,5.16,3.57H200c0-.81-.6-1.25-1.58-1.25-.79,0-1.32.39-1.32.94s.34.86,1.27,1.1l2.45.68c1.83.48,2.93,1.58,2.93,3.33,0,2.4-2,3.82-5.07,3.82C195.42,155.29,193.23,153.75,193.23,151.5Z"/><path class="cls-1" d="M205.62,140.17a2.21,2.21,0,0,1,2.25-2.26,2.25,2.25,0,1,1,0,4.49A2.2,2.2,0,0,1,205.62,140.17Zm.43,3.24h3.65V155h-3.65Z"/><path class="cls-1" d="M224,150.2h-8.54c.07,1.51,1.08,2.33,2.71,2.33,1.13,0,1.85-.31,2.16-1H224c-.36,2.28-2.69,3.79-5.76,3.79-3.93,0-6.36-2.23-6.36-6.1s2.47-6.09,6.24-6.09c3.6,0,6.05,2.23,6.05,5.49A11.31,11.31,0,0,1,224,150.2Zm-3.52-2.28a2.18,2.18,0,0,0-2.45-2.35,2.31,2.31,0,0,0-2.57,2.35Z"/><path class="cls-1" d="M226.23,143.41h3.67v2.42a3.25,3.25,0,0,1,3.2-2.62,3.67,3.67,0,0,1,1,.1v3.41a8.07,8.07,0,0,0-1.11-.07c-2,0-3,1.29-3,3.86V155h-3.67Z"/><rect class="cls-2" width="300" height="250"/></g></g></svg>