<svg xmlns="http://www.w3.org/2000/svg" viewBox="0 0 300 250"><defs><style>.cls-1{fill:#fff;}.cls-2{fill:none;}</style></defs><title>txt1b</title><g id="Layer_2" data-name="Layer 2"><g id="txt1b"><path class="cls-1" d="M37.26,172.82V180h-3.7v-6c0-1.94-.55-2.83-2-2.83s-2.23,1-2.23,2.74v6H25.62V163.17h3.67v6.92a3.91,3.91,0,0,1,3.74-2C35.84,168.1,37.26,169.68,37.26,172.82Z"/><path class="cls-1" d="M39.27,174.19c0-3.53,2.45-6.09,6.44-6.09s6.41,2.56,6.41,6.09-2.45,6.1-6.41,6.1S39.27,177.72,39.27,174.19Zm9.2,0a2.77,2.77,0,1,0-2.76,3A2.72,2.72,0,0,0,48.47,174.19Z"/><path class="cls-1" d="M54.23,168.41H57.9v1.68a3.94,3.94,0,0,1,6.93.14,4.05,4.05,0,0,1,3.7-2.13c3.31,0,4.11,2.28,4.11,4.7V180h-3.7v-6.51c0-1.61-.6-2.28-1.73-2.28s-1.94.65-1.94,2.83v6h-3.7v-6.53c0-1.61-.58-2.26-1.7-2.26s-2,.65-2,2.83v6H54.23Z"/><path class="cls-1" d="M86.82,175.2H78.27c.08,1.51,1.08,2.33,2.72,2.33,1.12,0,1.84-.31,2.16-1h3.6c-.36,2.28-2.69,3.79-5.76,3.79-3.94,0-6.37-2.23-6.37-6.1s2.48-6.09,6.25-6.09c3.6,0,6,2.23,6,5.49A12.92,12.92,0,0,1,86.82,175.2Zm-3.53-2.28a2.17,2.17,0,0,0-2.45-2.35,2.32,2.32,0,0,0-2.57,2.35Z"/><path class="cls-1" d="M94.86,163.17h3.67V180H94.86Z"/><path class="cls-1" d="M100.64,174.19c0-3.53,2.45-6.09,6.43-6.09s6.41,2.56,6.41,6.09-2.45,6.1-6.41,6.1S100.64,177.72,100.64,174.19Zm9.19,0a2.77,2.77,0,1,0-2.76,3A2.71,2.71,0,0,0,109.83,174.19Z"/><path class="cls-1" d="M114.94,174.19c0-3.45,2.14-6.09,5.5-6.09a4,4,0,0,1,3.63,2v-1.65h3.64V180h-3.64v-1.64a4.16,4.16,0,0,1-3.68,1.95C116.94,180.29,114.94,177.67,114.94,174.19Zm9.27,0a2.77,2.77,0,1,0-5.52,0,2.77,2.77,0,0,0,2.76,3.05A2.74,2.74,0,0,0,124.21,174.19Z"/><path class="cls-1" d="M130.76,168.41h3.67v1.68a3.92,3.92,0,0,1,3.75-2c2.81,0,4.22,1.58,4.22,4.72V180h-3.69v-6c0-1.94-.56-2.83-2-2.83s-2.24,1-2.24,2.74v6h-3.67Z"/><path class="cls-1" d="M144.49,176.5h3.65c0,.79.76,1.34,1.89,1.34.8,0,1.35-.38,1.35-1.06,0-.52-.27-.84-1.25-1.08l-2.43-.6a3.37,3.37,0,0,1-2.9-3.38c0-2.18,2-3.62,4.95-3.62,3.26,0,5.16,1.27,5.16,3.57h-3.63c0-.81-.6-1.25-1.58-1.25-.8,0-1.32.39-1.32.94s.33.86,1.27,1.1l2.45.68c1.82.48,2.93,1.58,2.93,3.33,0,2.4-2,3.82-5.07,3.82C146.67,180.29,144.49,178.75,144.49,176.5Z"/><path class="cls-1" d="M156.75,177.86a2.38,2.38,0,1,1,2.38,2.36A2.35,2.35,0,0,1,156.75,177.86Z"/><rect class="cls-2" width="300" height="250"/></g></g></svg>