<svg xmlns="http://www.w3.org/2000/svg" viewBox="0 0 300 250"><defs><style>.cls-1{fill:#fff;}.cls-2{fill:none;}</style></defs><title>txt2b</title><g id="Layer_2" data-name="Layer 2"><g id="txt2b"><path class="cls-1" d="M37.12,168.41v11.21a5.46,5.46,0,0,1-1.66,4.17,6,6,0,0,1-4.25,1.35,6.44,6.44,0,0,1-4.27-1.2,4.1,4.1,0,0,1-1.44-3.05h3.69c.08,1,.63,1.56,2,1.56s2.23-.79,2.23-2.59v-1.8A3.88,3.88,0,0,1,29.77,180c-2.95,0-4.27-2-4.27-4.85v-6.72h3.67v6.17c0,1.48.5,2.49,2,2.49s2.23-1.15,2.23-2.93v-5.73Z"/><path class="cls-1" d="M39.23,174.19c0-3.53,2.44-6.09,6.43-6.09s6.41,2.56,6.41,6.09-2.45,6.1-6.41,6.1S39.23,177.72,39.23,174.19Zm9.19,0a2.77,2.77,0,1,0-2.76,3A2.71,2.71,0,0,0,48.42,174.19Z"/><path class="cls-1" d="M54.06,175.56v-7.15h3.72v6.33c0,1.59.53,2.45,1.92,2.45,1.56,0,2.23-1,2.23-2.57v-6.21h3.65V180H61.93v-1.66a3.8,3.8,0,0,1-3.6,2C55.55,180.29,54.06,178.56,54.06,175.56Z"/><path class="cls-1" d="M81.8,177.05V180a15,15,0,0,1-2.45.19c-1.72,0-4.1-.39-4.1-4.25v-4.61H73.43v-2.9h1.82V165h3.67v3.43h2.62v2.9H78.92v3.84c0,1.71.7,2,1.61,2A9.92,9.92,0,0,0,81.8,177.05Z"/><path class="cls-1" d="M83.91,168.41h3.68v2.42a3.22,3.22,0,0,1,3.19-2.61,3.72,3.72,0,0,1,1,.09v3.41a8,8,0,0,0-1.11-.07c-2,0-3,1.29-3,3.86V180H83.91Z"/><path class="cls-1" d="M93.58,175.56v-7.15h3.73v6.33c0,1.59.52,2.45,1.92,2.45,1.56,0,2.23-1,2.23-2.57v-6.21h3.65V180h-3.65v-1.66a3.8,3.8,0,0,1-3.6,2C95.07,180.29,93.58,178.56,93.58,175.56Z"/><path class="cls-1" d="M107.31,176.5H111c0,.79.77,1.34,1.9,1.34.79,0,1.34-.38,1.34-1.06,0-.52-.26-.84-1.25-1.08l-2.42-.6a3.37,3.37,0,0,1-2.91-3.38c0-2.18,2-3.62,4.95-3.62,3.26,0,5.16,1.27,5.16,3.57h-3.62c0-.81-.6-1.25-1.59-1.25-.79,0-1.32.39-1.32.94s.34.86,1.27,1.1l2.45.68c1.83.48,2.93,1.58,2.93,3.33,0,2.4-2,3.82-5.06,3.82C109.5,180.29,107.31,178.75,107.31,176.5Z"/><path class="cls-1" d="M127.31,177.05V180a15.14,15.14,0,0,1-2.45.19c-1.73,0-4.11-.39-4.11-4.25v-4.61h-1.82v-2.9h1.82V165h3.68v3.43H127v2.9h-2.61v3.84c0,1.71.69,2,1.6,2A10.19,10.19,0,0,0,127.31,177.05Z"/><path class="cls-1" d="M129.27,177.86a2.38,2.38,0,1,1,2.38,2.36A2.35,2.35,0,0,1,129.27,177.86Z"/><rect class="cls-2" width="300" height="250"/></g></g></svg>