<svg xmlns="http://www.w3.org/2000/svg" viewBox="0 0 300 250"><defs><style>.cls-1{fill:#fff;}.cls-2{fill:none;}</style></defs><title>txt2a</title><g id="Layer_2" data-name="Layer 2"><g id="txt2a"><path class="cls-1" d="M25.74,138.18H36v3.26H29.63V146H36v3.19H29.63V155H25.74Z"/><path class="cls-1" d="M38.6,143.41h3.67v2.42a3.25,3.25,0,0,1,3.2-2.62,3.67,3.67,0,0,1,1,.1v3.41a8.07,8.07,0,0,0-1.11-.07c-2,0-3,1.29-3,3.86V155H38.6Z"/><path class="cls-1" d="M47.41,149.19c0-3.53,2.45-6.09,6.43-6.09s6.41,2.56,6.41,6.09-2.45,6.1-6.41,6.1S47.41,152.72,47.41,149.19Zm9.19,0a2.77,2.77,0,1,0-2.76,3A2.71,2.71,0,0,0,56.6,149.19Z"/><path class="cls-1" d="M62.36,143.41H66v1.68a4,4,0,0,1,6.94.14,4,4,0,0,1,3.7-2.13c3.31,0,4.1,2.28,4.1,4.7V155H77.08v-6.51c0-1.61-.6-2.28-1.73-2.28s-1.95.65-1.95,2.83v6H69.71v-6.53c0-1.61-.58-2.26-1.71-2.26s-2,.65-2,2.83v6H62.36Z"/><path class="cls-1" d="M88.67,149.19c0-3.45,2.13-6.09,5.49-6.09a4,4,0,0,1,3.63,2v-1.65h3.64V155H97.79v-1.64a4.16,4.16,0,0,1-3.68,1.95C90.66,155.29,88.67,152.67,88.67,149.19Zm9.26,0a2.77,2.77,0,1,0-5.52,0,2.77,2.77,0,0,0,2.76,3.05A2.74,2.74,0,0,0,97.93,149.19Z"/><path class="cls-1" d="M110.31,138.18H114V155h-3.68Z"/><path class="cls-1" d="M128.29,150.2h-8.54c.07,1.51,1.08,2.33,2.71,2.33,1.13,0,1.85-.31,2.16-1h3.6c-.36,2.28-2.69,3.79-5.76,3.79-3.94,0-6.36-2.23-6.36-6.1s2.47-6.09,6.24-6.09c3.6,0,6,2.23,6,5.49A13,13,0,0,1,128.29,150.2Zm-3.53-2.28a2.17,2.17,0,0,0-2.45-2.35,2.31,2.31,0,0,0-2.56,2.35Z"/><path class="cls-1" d="M130.5,143.41h3.67v1.68a3.91,3.91,0,0,1,3.74-2c2.81,0,4.23,1.58,4.23,4.72V155h-3.7v-6c0-1.94-.55-2.83-2-2.83s-2.23,1-2.23,2.74v6H130.5Z"/><path class="cls-1" d="M157,138.18V155h-3.64v-1.64a4.16,4.16,0,0,1-3.68,1.95c-3.45,0-5.45-2.62-5.45-6.1s2.14-6.09,5.5-6.09a4,4,0,0,1,3.63,2v-6.88Zm-3.5,11a2.77,2.77,0,1,0-5.52,0,2.77,2.77,0,0,0,2.76,3.05A2.74,2.74,0,0,0,153.49,149.19Z"/><path class="cls-1" d="M171.32,150.2h-8.54c.07,1.51,1.08,2.33,2.71,2.33,1.13,0,1.85-.31,2.16-1h3.6c-.36,2.28-2.69,3.79-5.76,3.79-3.94,0-6.36-2.23-6.36-6.1s2.47-6.09,6.24-6.09c3.6,0,6,2.23,6,5.49A13,13,0,0,1,171.32,150.2Zm-3.53-2.28a2.17,2.17,0,0,0-2.45-2.35,2.31,2.31,0,0,0-2.56,2.35Z"/><path class="cls-1" d="M173.53,143.41h3.67v2.42a3.24,3.24,0,0,1,3.19-2.62,3.57,3.57,0,0,1,1,.1v3.41a7.82,7.82,0,0,0-1.1-.07c-2,0-3.05,1.29-3.05,3.86V155h-3.67Z"/><rect class="cls-2" width="300" height="250"/></g></g></svg>