<svg xmlns="http://www.w3.org/2000/svg" viewBox="0 0 300 250"><title>txt3</title><g id="Layer_2" data-name="Layer 2"><g id="_300x250" data-name="300x250"><path d="M163.55,74.48h4.67l1.35,4.42c.45,1.46.84,2.84,1.21,4.23h.06c.38-1.36.78-2.82,1.23-4.23l1.42-4.42h3.44l1.4,4.42c.47,1.51.82,2.83,1.2,4.23h.06c.37-1.4.76-2.75,1.21-4.23l1.35-4.42h4.34L181.8,89.09h-4.27l-1.16-3.67c-.45-1.44-.88-2.9-1.24-4.25h-.06c-.36,1.35-.79,2.76-1.26,4.23l-1.19,3.7h-4.34Z" fill="#fff"/><rect x="132.13" y="66.75" width="4.72" height="22.34" fill="#fff"/><rect x="140.35" y="66.75" width="4.72" height="22.34" fill="#fff"/><path d="M147.41,81.83a7.95,7.95,0,1,1,8,7.75,7.75,7.75,0,0,1-8-7.75m11.36,0a3.42,3.42,0,1,0-3.39,3.66,3.46,3.46,0,0,0,3.39-3.66" fill="#fff"/><polygon points="104.8 68.82 104.8 73.13 113.15 73.13 113.18 73.19 104.55 87.85 104.55 89.09 120.81 89.09 120.81 84.79 111.78 84.79 111.75 84.73 120.37 70.07 120.36 70.07 120.36 68.82 104.8 68.82" fill="#fff"/><path d="M126.18,67.16a2.65,2.65,0,1,1-2.69,2.65,2.65,2.65,0,0,1,2.69-2.65m-2.36,7.32h4.73V89.09h-4.72Z" fill="#fff"/><path d="M190.54,73.28a.62.62,0,0,0-.59-.64h-.74v1.84h.31v-.55h.29l.34.55h.34l-.36-.59A.65.65,0,0,0,190.54,73.28Zm-.66.38h-.35v-.75h.35a.37.37,0,0,1,.34.41A.37.37,0,0,1,189.88,73.66Z" fill="#fff"/><path d="M189.81,72a1.6,1.6,0,1,0,1.59,1.59h0A1.59,1.59,0,0,0,189.81,72Zm0,2.88a1.29,1.29,0,1,1,1.29-1.29,1.29,1.29,0,0,1-1.29,1.29Z" fill="#fff"/><path d="M118.11,109.71H107.79v7.42H104.9V96.84h2.89v10.27h10.33V96.84H121v20.29h-2.88Z" fill="#fff"/><path d="M131.23,117.54a7.82,7.82,0,0,1-3.17-.61,7.19,7.19,0,0,1-2.43-1.69,7.74,7.74,0,0,1-1.56-2.46,8,8,0,0,1-.55-3,8.13,8.13,0,0,1,.55-3,7.51,7.51,0,0,1,1.56-2.47,7.15,7.15,0,0,1,2.42-1.69,8.58,8.58,0,0,1,6.38,0,7.27,7.27,0,0,1,2.45,1.69,7.53,7.53,0,0,1,1.57,2.47,8.13,8.13,0,0,1,.55,3,7.84,7.84,0,0,1-.55,3,7.49,7.49,0,0,1-1.57,2.46,7.32,7.32,0,0,1-2.45,1.69A8,8,0,0,1,131.23,117.54Zm0-2.52a4.84,4.84,0,0,0,4.63-3.18,5.76,5.76,0,0,0,0-4,4.9,4.9,0,0,0-1-1.65,4.66,4.66,0,0,0-1.57-1.14,5,5,0,0,0-2-.42,4.75,4.75,0,0,0-2,.42,4.69,4.69,0,0,0-1.54,1.14,5.22,5.22,0,0,0-1,1.65,5.88,5.88,0,0,0,0,4,5.1,5.1,0,0,0,1,1.64,4.77,4.77,0,0,0,1.54,1.12A4.89,4.89,0,0,0,131.23,115Z" fill="#fff"/><path d="M202.78,117.54a7.9,7.9,0,0,1-3.18-.61,7.15,7.15,0,0,1-2.42-1.69,7.74,7.74,0,0,1-1.56-2.46,8,8,0,0,1-.55-3,8.13,8.13,0,0,1,.55-3,7.51,7.51,0,0,1,1.56-2.47,7.15,7.15,0,0,1,2.42-1.69,8.58,8.58,0,0,1,6.38,0,7.41,7.41,0,0,1,4,4.16,7.93,7.93,0,0,1,.55,3,7.84,7.84,0,0,1-.55,3,7.46,7.46,0,0,1-4,4.15A8,8,0,0,1,202.78,117.54Zm0-2.52a4.85,4.85,0,0,0,3.62-1.54,5.05,5.05,0,0,0,1-1.64,5.88,5.88,0,0,0,0-4,5.1,5.1,0,0,0-1-1.65,4.66,4.66,0,0,0-1.57-1.14,5,5,0,0,0-2.05-.42,4.64,4.64,0,0,0-3.58,1.56,5.41,5.41,0,0,0-1,1.65,5.88,5.88,0,0,0,0,4,5.18,5.18,0,0,0,1,1.64,4.88,4.88,0,0,0,1.54,1.12A4.94,4.94,0,0,0,202.78,115Z" fill="#fff"/><path d="M160.48,117.12v-8.41a5.07,5.07,0,0,0-.79-3.09,2.74,2.74,0,0,0-2.31-1,3.11,3.11,0,0,0-2.61,1.26,6.19,6.19,0,0,0-1,3.83v7.45H151v-8.25a5.43,5.43,0,0,0-.79-3.26,2.7,2.7,0,0,0-2.28-1,3.21,3.21,0,0,0-2.61,1.26,6.07,6.07,0,0,0-1,3.83v7.45h-2.8V102.48h2.8v2.62a4.52,4.52,0,0,1,1.55-2.11,4.33,4.33,0,0,1,2.77-.88,5.12,5.12,0,0,1,3.16.85,4.3,4.3,0,0,1,1.55,2.28A4.32,4.32,0,0,1,154,104a4.93,4.93,0,0,1,1-1,5.74,5.74,0,0,1,1.36-.67,4.72,4.72,0,0,1,1.63-.26,6,6,0,0,1,2.45.45,4.14,4.14,0,0,1,1.61,1.23,4.85,4.85,0,0,1,.88,1.83,9.09,9.09,0,0,1,.28,2.26v9.26Z" fill="#fff"/><path d="M168.48,110.58a6.2,6.2,0,0,0,.31,1.76,4.37,4.37,0,0,0,.81,1.46,3.68,3.68,0,0,0,1.37,1,5.11,5.11,0,0,0,2.08.37,4,4,0,0,0,2.51-.69,3.87,3.87,0,0,0,1.21-1.64h2.85a5.49,5.49,0,0,1-2.07,3.27,6.59,6.59,0,0,1-2,1,7.74,7.74,0,0,1-2.53.39,8.1,8.1,0,0,1-3.23-.61,6.43,6.43,0,0,1-2.3-1.66,6.75,6.75,0,0,1-1.36-2.44,9.84,9.84,0,0,1-.46-3,9.54,9.54,0,0,1,.49-3.08,7.2,7.2,0,0,1,1.41-2.46,6.33,6.33,0,0,1,2.26-1.61,7.67,7.67,0,0,1,3.1-.59,7,7,0,0,1,2.67.5,6.56,6.56,0,0,1,4.13,6.14c0,.21,0,.47,0,.78a9.52,9.52,0,0,1-.11,1.06Zm4.4-6.31a4.44,4.44,0,0,0-3.11,1.09,4.12,4.12,0,0,0-1.26,3.09H177a4,4,0,0,0-1.19-3.06,4.17,4.17,0,0,0-3-1.13Z" fill="#fff"/><path d="M194.25,114.53v2.6H184.08V96.89H187v17.64Z" fill="#fff"/><path d="M228,102.51v14.6h-2.79v-2.48a5.2,5.2,0,0,1-2.12,2.14,6.18,6.18,0,0,1-3,.77,7.4,7.4,0,0,1-3.08-.61,7.14,7.14,0,0,1-2.38-1.69,7.86,7.86,0,0,1-1.54-2.46,8,8,0,0,1-.55-3,8.13,8.13,0,0,1,.55-3,7.84,7.84,0,0,1,1.54-2.47,7,7,0,0,1,2.39-1.69,7.48,7.48,0,0,1,3.09-.61,6.14,6.14,0,0,1,3,.77,5.09,5.09,0,0,1,2.12,2.14v-2.49ZM220,115.07a4.72,4.72,0,0,0,4.53-3.11,5.63,5.63,0,0,0,0-3.92,4.88,4.88,0,0,0-1-1.62,4.74,4.74,0,0,0-1.54-1.11,4.79,4.79,0,0,0-2-.41,4.67,4.67,0,0,0-2,.41,4.62,4.62,0,0,0-1.51,1.11,5.14,5.14,0,0,0-1,1.62,5.74,5.74,0,0,0,0,3.92,5.09,5.09,0,0,0,1,1.61,4.57,4.57,0,0,0,1.51,1.09,4.72,4.72,0,0,0,2,.41Z" fill="#fff"/><path d="M230.59,102.51h2.8v2.56a5.08,5.08,0,0,1,2-2.16,6,6,0,0,1,3.19-.81,6.38,6.38,0,0,1,2.64.5,4.14,4.14,0,0,1,1.74,1.44,5.2,5.2,0,0,1,.87,1.86,10.72,10.72,0,0,1,.26,2.58v8.64h-2.8v-7.76a8.55,8.55,0,0,0-.2-1.89,4,4,0,0,0-.63-1.51,3,3,0,0,0-1.14-1,3.62,3.62,0,0,0-1.74-.37,3.69,3.69,0,0,0-1.84.42,4,4,0,0,0-1.29,1.11,5,5,0,0,0-.77,1.59,7,7,0,0,0-.26,1.87v7.55h-2.8Z" fill="#fff"/><path d="M253.59,109c.57.17,1.11.35,1.64.55a5.75,5.75,0,0,1,1.41.74,3.43,3.43,0,0,1,1,1.13,3.55,3.55,0,0,1,.38,1.72,4.17,4.17,0,0,1-.44,1.93,3.91,3.91,0,0,1-1.22,1.37,5.73,5.73,0,0,1-1.83.83,8.73,8.73,0,0,1-2.28.27,8,8,0,0,1-2.33-.32,5.57,5.57,0,0,1-1.92-1,4.92,4.92,0,0,1-1.33-1.67,5.31,5.31,0,0,1-.5-2.33h2.75a2.7,2.7,0,0,0,1,2.38,4.17,4.17,0,0,0,2.48.7,4,4,0,0,0,2.15-.5,1.76,1.76,0,0,0,.79-1.61,1.4,1.4,0,0,0-.32-1,2.77,2.77,0,0,0-.93-.66,9.47,9.47,0,0,0-1.46-.54q-.89-.24-2-.63c-.56-.17-1.08-.35-1.57-.55a4.69,4.69,0,0,1-1.26-.74A3.23,3.23,0,0,1,247,108a3.91,3.91,0,0,1,1.28-4.81,5.37,5.37,0,0,1,1.75-.81,8,8,0,0,1,2.13-.28,7.1,7.1,0,0,1,2.24.36,5.51,5.51,0,0,1,1.79,1,5,5,0,0,1,1.2,1.57,4.5,4.5,0,0,1,.44,2h-2.72a2.55,2.55,0,0,0-.76-2,3.17,3.17,0,0,0-2.23-.7,3.4,3.4,0,0,0-1.94.52,1.71,1.71,0,0,0-.78,1.52,1.46,1.46,0,0,0,.28.9,2.18,2.18,0,0,0,.82.62,10.1,10.1,0,0,0,1.33.5Z" fill="#fff"/><rect width="300" height="250" fill="none"/></g></g></svg>