<svg xmlns="http://www.w3.org/2000/svg" viewBox="0 0 300.01 250"><title>txt3</title><g id="Layer_2" data-name="Layer 2"><g id="Layer_4" data-name="Layer 4"><path d="M163.57,73.41h4.64l1.35,4.4c.45,1.46.84,2.83,1.2,4.22h.06c.38-1.36.78-2.81,1.22-4.22l1.42-4.4h3.43l1.38,4.4c.47,1.51.82,2.83,1.2,4.22h.06c.36-1.39.76-2.74,1.21-4.22l1.34-4.4h4.32L181.73,88h-4.25l-1.16-3.65c-.44-1.43-.87-2.89-1.23-4.24H175c-.37,1.35-.79,2.75-1.26,4.22L172.6,88h-4.33Z" fill="#fff"/><rect x="132.3" y="65.73" width="4.7" height="22.23" fill="#fff"/><rect x="140.48" y="65.73" width="4.7" height="22.23" fill="#fff"/><path d="M147.51,80.74a7.91,7.91,0,1,1,7.92,7.7,7.72,7.72,0,0,1-7.92-7.7m11.3,0a3.4,3.4,0,1,0-3.38,3.63,3.44,3.44,0,0,0,3.38-3.63" fill="#fff"/><polygon points="105.1 67.79 105.1 72.07 113.41 72.07 113.44 72.13 104.85 86.73 104.85 87.96 121.03 87.96 121.03 83.68 112.04 83.68 112.01 83.62 120.6 69.03 120.59 69.03 120.59 67.79 105.1 67.79" fill="#fff"/><path d="M126.38,66.13a2.64,2.64,0,1,1-2.68,2.64,2.64,2.64,0,0,1,2.68-2.64M124,73.41h4.7V88H124Z" fill="#fff"/><path d="M75.73,75.1a.46.46,0,0,1,.53.18c.9.94,3.83,4.22,4.63,5.12a.31.31,0,0,1,0,.42l0,0A100.37,100.37,0,0,0,66.08,96.51c-.07.1,0,.1,0,.08a174.66,174.66,0,0,1,26.63-9.08V80.42L67.58,60.53,42.37,80.42v9.85C50.05,85.31,67.68,77.47,75.73,75.1Z" fill="#fff"/><path d="M56.65,110.11a.42.42,0,0,1-.55-.06l-4.92-5.4c-.14-.14-.15-.22,0-.48,3.41-5.46,10.48-14,15.06-17.74.08-.06.06-.12,0-.08A207,207,0,0,0,42.37,98v17.9H92.75V96.58C85.76,98.11,65.72,105,56.65,110.11Z" fill="#fff"/><path d="M190.42,72.23a.6.6,0,0,0-.58-.64s0,0-.05,0h-.68v1.83h.3v-.55h.29l.34.55h.34l-.36-.59A.62.62,0,0,0,190.42,72.23Zm-.65.37h-.35v-.74h.35a.36.36,0,0,1,.34.4A.37.37,0,0,1,189.77,72.6Z" fill="#fff"/><path d="M189.7,71a1.59,1.59,0,1,0,1.59,1.59h0A1.6,1.6,0,0,0,189.7,71Zm0,2.86A1.28,1.28,0,1,1,191,72.53a1.28,1.28,0,0,1-1.28,1.28Z" fill="#fff"/><path d="M118.35,108.48H108.07v7.39H105.2V95.67h2.87v10.22h10.28V95.67h2.86v20.2h-2.86Z" fill="#fff"/><path d="M131.41,116.27a7.77,7.77,0,0,1-3.16-.61,7.27,7.27,0,0,1-2.42-1.68,7.73,7.73,0,0,1-1.55-2.44,8.16,8.16,0,0,1,0-5.89,7.54,7.54,0,0,1,1.55-2.46,7.23,7.23,0,0,1,2.41-1.68,8.6,8.6,0,0,1,6.35,0,7.21,7.21,0,0,1,2.43,1.68,7.59,7.59,0,0,1,1.57,2.46,8.25,8.25,0,0,1,.55,2.95,8,8,0,0,1-.55,2.94A7.54,7.54,0,0,1,137,114a7.35,7.35,0,0,1-2.44,1.68A7.9,7.9,0,0,1,131.41,116.27Zm0-2.51a4.81,4.81,0,0,0,4.6-3.16,5.74,5.74,0,0,0,0-4,5.1,5.1,0,0,0-1-1.64,4.78,4.78,0,0,0-1.57-1.13,5.14,5.14,0,0,0-4.07,0,4.62,4.62,0,0,0-1.53,1.13,5.18,5.18,0,0,0-1,1.64,5.74,5.74,0,0,0,0,4,5,5,0,0,0,1,1.63,4.66,4.66,0,0,0,1.53,1.11A4.74,4.74,0,0,0,131.41,113.76Z" fill="#fff"/><path d="M202.61,116.27a7.77,7.77,0,0,1-3.16-.61A7.17,7.17,0,0,1,197,114a7.73,7.73,0,0,1-1.55-2.44,8.3,8.3,0,0,1,0-5.89,7.71,7.71,0,0,1,1.55-2.46,7.17,7.17,0,0,1,2.42-1.68,8.6,8.6,0,0,1,6.35,0,7.56,7.56,0,0,1,2.44,1.68,7.74,7.74,0,0,1,1.56,2.46,8.16,8.16,0,0,1,0,5.89,7.54,7.54,0,0,1-1.56,2.44,7.35,7.35,0,0,1-2.44,1.68A8,8,0,0,1,202.61,116.27Zm0-2.51a4.81,4.81,0,0,0,4.6-3.16,5.74,5.74,0,0,0,0-4,5,5,0,0,0-1-1.64,4.74,4.74,0,0,0-1.56-1.13,5.14,5.14,0,0,0-4.07,0,4.62,4.62,0,0,0-1.53,1.13,5.29,5.29,0,0,0-1,1.64,5.85,5.85,0,0,0,0,4,5.24,5.24,0,0,0,1,1.63,4.66,4.66,0,0,0,1.53,1.11A4.74,4.74,0,0,0,202.61,113.76Z" fill="#fff"/><path d="M160.51,115.86v-8.38a5,5,0,0,0-.79-3.07,2.71,2.71,0,0,0-2.3-1,3.13,3.13,0,0,0-2.6,1.25,6.26,6.26,0,0,0-1,3.82v7.42h-2.78v-8.22a5.36,5.36,0,0,0-.79-3.24,2.64,2.64,0,0,0-2.26-1,3.14,3.14,0,0,0-2.6,1.25,6,6,0,0,0-1,3.81v7.42h-2.79V101.29h2.79v2.6a4.48,4.48,0,0,1,1.54-2.1,4.38,4.38,0,0,1,2.76-.88,5.12,5.12,0,0,1,3.14.85,4.26,4.26,0,0,1,1.54,2.27,4.53,4.53,0,0,1,.68-1.19,5.19,5.19,0,0,1,1-1,5.67,5.67,0,0,1,1.35-.67,5.23,5.23,0,0,1,1.62-.26,5.91,5.91,0,0,1,2.44.45,4.21,4.21,0,0,1,1.61,1.22,5,5,0,0,1,.87,1.83,8.56,8.56,0,0,1,.27,2.25v9.21Z" fill="#fff"/><path d="M168.47,109.34a6.2,6.2,0,0,0,.31,1.76,4.32,4.32,0,0,0,.81,1.45,3.7,3.7,0,0,0,1.36,1,5.07,5.07,0,0,0,2.07.38,3.87,3.87,0,0,0,2.49-.7,3.71,3.71,0,0,0,1.21-1.63h2.84a5.52,5.52,0,0,1-2.06,3.26,6.74,6.74,0,0,1-2,1,7.68,7.68,0,0,1-2.52.39,7.92,7.92,0,0,1-3.22-.61A6.52,6.52,0,0,1,167.5,114a6.88,6.88,0,0,1-1.35-2.44,9.7,9.7,0,0,1-.45-3,9.33,9.33,0,0,1,.48-3.06,7.11,7.11,0,0,1,1.4-2.45,6.33,6.33,0,0,1,2.26-1.61,7.74,7.74,0,0,1,3.08-.58,7.13,7.13,0,0,1,2.66.49,6.53,6.53,0,0,1,4.11,6.11c0,.22,0,.47,0,.77a9.46,9.46,0,0,1-.11,1.07Zm4.38-6.27a4.44,4.44,0,0,0-3.09,1.08,4.09,4.09,0,0,0-1.26,3.07H177a4,4,0,0,0-1.18-3,4.13,4.13,0,0,0-2.94-1.12Z" fill="#fff"/><path d="M194.12,113.27v2.6H184V95.72h2.88v17.55Z" fill="#fff"/><path d="M227.65,101.32v14.53h-2.77v-2.48a5,5,0,0,1-2.11,2.13,6.1,6.1,0,0,1-3,.77,7.36,7.36,0,0,1-3.07-.61,7.07,7.07,0,0,1-2.37-1.68,7.67,7.67,0,0,1-1.53-2.44,8.16,8.16,0,0,1,0-5.89,7.76,7.76,0,0,1,1.53-2.46,7.11,7.11,0,0,1,2.38-1.68,7.72,7.72,0,0,1,3.07-.61,6.21,6.21,0,0,1,3,.77,5.16,5.16,0,0,1,2.11,2.13v-2.48Zm-7.89,12.49a4.7,4.7,0,0,0,4.5-3.09,5.6,5.6,0,0,0,0-3.91,5,5,0,0,0-1-1.6,4.66,4.66,0,0,0-1.53-1.11,4.78,4.78,0,0,0-2-.41,4.67,4.67,0,0,0-2,.41,4.55,4.55,0,0,0-1.5,1.11,5.21,5.21,0,0,0-1,1.6,5.71,5.71,0,0,0,0,3.91,4.87,4.87,0,0,0,1,1.59,4.36,4.36,0,0,0,1.5,1.09,4.67,4.67,0,0,0,2,.41Z" fill="#fff"/><path d="M230.28,101.32h2.79v2.54a5,5,0,0,1,2-2.15,6,6,0,0,1,3.18-.8,6.28,6.28,0,0,1,2.62.49,4.26,4.26,0,0,1,1.74,1.43,5.35,5.35,0,0,1,.86,1.86,10.58,10.58,0,0,1,.26,2.57v8.6H240.9v-7.73a9.16,9.16,0,0,0-.19-1.88,4.18,4.18,0,0,0-.63-1.51,3,3,0,0,0-1.14-1,3.7,3.7,0,0,0-1.73-.37,3.76,3.76,0,0,0-1.83.42,3.87,3.87,0,0,0-1.28,1.1,5,5,0,0,0-.77,1.59,6.9,6.9,0,0,0-.26,1.86v7.51h-2.79Z" fill="#fff"/><path d="M253.18,107.77c.56.17,1.1.35,1.62.55a5.14,5.14,0,0,1,1.41.74,3.51,3.51,0,0,1,1,1.12,3.62,3.62,0,0,1,.37,1.71,4.1,4.1,0,0,1-.44,1.92,4,4,0,0,1-1.21,1.37,5.54,5.54,0,0,1-1.82.82,8.66,8.66,0,0,1-2.27.27,8,8,0,0,1-2.32-.32,5.55,5.55,0,0,1-1.92-1,4.93,4.93,0,0,1-1.31-1.66,5.16,5.16,0,0,1-.5-2.32h2.74a2.72,2.72,0,0,0,1,2.37,4.21,4.21,0,0,0,2.47.69,4,4,0,0,0,2.14-.5,1.75,1.75,0,0,0,.79-1.59,1.47,1.47,0,0,0-.32-1,2.89,2.89,0,0,0-.93-.65,8.2,8.2,0,0,0-1.46-.53c-.58-.17-1.23-.38-2-.63-.56-.17-1.08-.36-1.56-.55a4.69,4.69,0,0,1-1.26-.74,3.36,3.36,0,0,1-.84-1.1,3.89,3.89,0,0,1,1.28-4.78,5.43,5.43,0,0,1,1.74-.81,8.38,8.38,0,0,1,2.12-.27,6.66,6.66,0,0,1,2.22.35,5.31,5.31,0,0,1,1.79,1,4.67,4.67,0,0,1,1.19,1.56,4.49,4.49,0,0,1,.44,2h-2.7a2.56,2.56,0,0,0-.76-2,3.18,3.18,0,0,0-2.22-.7,3.37,3.37,0,0,0-1.93.52,1.7,1.7,0,0,0-.77,1.51,1.37,1.37,0,0,0,.27.9,2.18,2.18,0,0,0,.82.62,12.34,12.34,0,0,0,1.32.5Z" fill="#fff"/><rect width="300.01" height="250" fill="none"/></g></g></svg>