<svg xmlns="http://www.w3.org/2000/svg" viewBox="0 0 300 250"><defs><style>.cls-1{fill:#fff;}.cls-2{fill:none;}</style></defs><title>w</title><g id="Layer_2" data-name="Layer 2"><g id="Layer_10_copy_2" data-name="Layer 10 copy 2"><path class="cls-1" d="M202.74,66.1h8l2.32,7.59c.77,2.51,2.06,7.23,2.06,7.23a.06.06,0,0,0,.12,0s1.34-4.8,2.1-7.23l2.44-7.59h5.91l2.39,7.59c.81,2.6,2.06,7.23,2.06,7.23a.06.06,0,0,0,.12,0s1.3-4.69,2.07-7.23l2.32-7.59h7.44l-8,25.08h-7.32l-2-6.3c-.76-2.47-2.11-7.26-2.11-7.26a.06.06,0,0,0-.12,0s-1.35,4.7-2.16,7.22l-2,6.34h-7.46Z"/><path class="cls-1" d="M247.5,62.53a1.17,1.17,0,0,0-1.2-1.23H245v3.51h.58V63.76h.56l.64,1.05h.66l-.69-1.13A1.18,1.18,0,0,0,247.5,62.53Zm-1.23.71h-.68V61.82h.68a.71.71,0,0,1,0,1.42Z"/><path class="cls-1" d="M246.13,60.09a3,3,0,1,0,3,3A3,3,0,0,0,246.13,60.09Zm0,5.47a2.45,2.45,0,1,1,2.44-2.45A2.45,2.45,0,0,1,246.13,65.56Z"/><rect class="cls-2" width="300" height="250"/></g></g></svg>