<svg xmlns="http://www.w3.org/2000/svg" viewBox="0 0 728 90"><title>bg</title><g id="Layer_2" data-name="Layer 2"><g id="Layer_13" data-name="Layer 13"><path d="M-532-150H-77v-29C-329.2-229.77-453.38-198.72-532-150Z" transform="translate(690 240)" fill="#ffd237"/><path d="M-469-150H38v-90H-342C-399.77-215.91-436.45-181.44-469-150Z" transform="translate(690 240)" fill="#006aff"/><path d="M-208.51-156.57c.17-.12.35-.25.51-.38a13,13,0,0,0,4.19-6.77,11.44,11.44,0,0,0-.76-9.19c-5-8.51-15-3.94-18.85.66a10.17,10.17,0,0,0-2.15,9.74,12.09,12.09,0,0,0,8.9,7.64A10.92,10.92,0,0,0-208.51-156.57Z" transform="translate(690 240)" fill="#c88205"/><rect x="475" y="70" width="2" height="20" fill="#f2a619"/><polygon points="524 53 538 67 538 90 512 90 497 53 524 53" fill="#0d4599"/><polygon points="497 53 512 67 512 90 483 90 483 67 497 53" fill="#e0f2ff"/><rect x="493" y="77" width="9" height="13" fill="#006aff"/><path d="M-156-154h-17v-14h17Zm-15-2h13v-10h-13Z" transform="translate(690 240)" fill="#e0f2ff"/><path d="M-45.44-207.32h3l.87,2.86c.3,1,.55,1.84.79,2.74h0c.25-.88.51-1.83.8-2.74l.92-2.86h2.23l.9,2.86c.3,1,.53,1.83.78,2.74h0c.23-.91.49-1.78.78-2.74l.88-2.86h2.8l-3,9.45H-36.4l-.75-2.37c-.29-.93-.57-1.88-.8-2.75h0c-.23.87-.51,1.79-.81,2.74l-.77,2.39h-2.81Z" transform="translate(690 240)" fill="#fff"/><rect x="624.23" y="27.68" width="3.06" height="14.45" fill="#fff"/><rect x="629.55" y="27.68" width="3.06" height="14.45" fill="#fff"/><path d="M-55.88-202.56a5,5,0,0,1,5.15-5,5,5,0,0,1,5.13,5,5,5,0,0,1-5.13,5,5,5,0,0,1-5.15-5m7.34,0a2.24,2.24,0,0,0-2.19-2.37,2.24,2.24,0,0,0-2.22,2.37,2.23,2.23,0,0,0,2.22,2.36,2.23,2.23,0,0,0,2.19-2.36" transform="translate(690 240)" fill="#fff"/><polygon points="606.55 29.02 606.55 31.81 611.95 31.81 611.97 31.84 606.38 41.33 606.38 42.13 616.9 42.13 616.9 39.35 611.06 39.35 611.04 39.32 616.62 29.83 616.62 29.83 616.62 29.02 606.55 29.02" fill="#fff"/><path d="M-69.62-212.06a1.73,1.73,0,0,1,1.69,1.75,1.72,1.72,0,0,1-1.74,1.68,1.71,1.71,0,0,1-1.69-1.71,1.74,1.74,0,0,1,1.74-1.72m-1.53,4.74h3.05v9.45h-3.05Z" transform="translate(690 240)" fill="#fff"/><path d="M-102.55-206.22a.29.29,0,0,1,.35.11c.59.61,2.49,2.75,3,3.33a.19.19,0,0,1,0,.27l0,0a64.87,64.87,0,0,0-9.59,10.18c-.05.07,0,.07,0,.05a113.72,113.72,0,0,1,17.32-5.89v-4.62l-16.36-12.93-16.4,12.93v6.4A116.05,116.05,0,0,1-102.55-206.22Z" transform="translate(690 240)" fill="#fff"/><path d="M-114.95-183.46a.28.28,0,0,1-.36,0l-3.2-3.51c-.09-.1-.1-.15,0-.31a57.67,57.67,0,0,1,9.8-11.54s0-.08,0,0a134.51,134.51,0,0,0-15.5,7.55v11.64h32.76v-12.54C-96-191.27-109.06-186.81-114.95-183.46Z" transform="translate(690 240)" fill="#fff"/><path d="M-28-208.09a.4.4,0,0,0-.38-.42h-.48v1.19h.2v-.35h.19l.22.35H-28l-.23-.38A.41.41,0,0,0-28-208.09Zm-.42.24h-.24v-.48h.24a.24.24,0,0,1,.22.26A.25.25,0,0,1-28.4-207.85Z" transform="translate(690 240)" fill="#fff"/><path d="M-28.45-208.92a1,1,0,0,0-1,1,1,1,0,0,0,1,1,1,1,0,0,0,1-1h0A1,1,0,0,0-28.45-208.92Zm0,1.86a.84.84,0,0,1-.84-.83.85.85,0,0,1,.84-.84.84.84,0,0,1,.83.84.83.83,0,0,1-.83.83Z" transform="translate(690 240)" fill="#fff"/><path d="M-74.84-184.52h-6.68v4.8h-1.87v-13.13h1.87v6.64h6.68v-6.64H-73v13.13h-1.86Z" transform="translate(690 240)" fill="#fff"/><path d="M-66.35-179.46a5,5,0,0,1-2.05-.4A4.53,4.53,0,0,1-70-180.95a4.84,4.84,0,0,1-1-1.59,5.13,5.13,0,0,1-.36-1.9,5.24,5.24,0,0,1,.36-1.92,4.91,4.91,0,0,1,1-1.6A4.62,4.62,0,0,1-68.41-189a5.56,5.56,0,0,1,4.13,0A4.66,4.66,0,0,1-62.7-188a4.8,4.8,0,0,1,1,1.6,5.24,5.24,0,0,1,.36,1.92,5.13,5.13,0,0,1-.36,1.9,4.86,4.86,0,0,1-1,1.59,4.57,4.57,0,0,1-1.58,1.09A5.06,5.06,0,0,1-66.35-179.46Zm0-1.63a3.14,3.14,0,0,0,3-2.06,3.84,3.84,0,0,0,0-2.59,3.34,3.34,0,0,0-.65-1.07,3.08,3.08,0,0,0-1-.73,3.21,3.21,0,0,0-1.33-.28,3.2,3.2,0,0,0-1.32.28,2.87,2.87,0,0,0-1,.73,3.15,3.15,0,0,0-.64,1.07,3.72,3.72,0,0,0,0,2.59,3.2,3.2,0,0,0,.64,1.06,3.11,3.11,0,0,0,1,.73A3.35,3.35,0,0,0-66.35-181.09Z" transform="translate(690 240)" fill="#fff"/><path d="M-20.06-179.46a5,5,0,0,1-2.06-.4,4.72,4.72,0,0,1-1.57-1.09,5,5,0,0,1-1-1.59,5.13,5.13,0,0,1-.36-1.9,5.24,5.24,0,0,1,.36-1.92,4.91,4.91,0,0,1,1-1.6A4.72,4.72,0,0,1-22.12-189,5.56,5.56,0,0,1-18-189,4.7,4.7,0,0,1-16.4-188a4.78,4.78,0,0,1,1,1.6,5.24,5.24,0,0,1,.36,1.92,5.13,5.13,0,0,1-.36,1.9,4.84,4.84,0,0,1-1,1.59A4.76,4.76,0,0,1-18-179.86,5.14,5.14,0,0,1-20.06-179.46Zm0-1.63a3.13,3.13,0,0,0,2.34-1,2.89,2.89,0,0,0,.65-1.06,3.72,3.72,0,0,0,0-2.59,3,3,0,0,0-.65-1.07,3,3,0,0,0-1-.73,3.21,3.21,0,0,0-1.33-.28,3.2,3.2,0,0,0-1.32.28,2.87,2.87,0,0,0-1,.73,3.15,3.15,0,0,0-.64,1.07,3.72,3.72,0,0,0,0,2.59,3.2,3.2,0,0,0,.64,1.06,3,3,0,0,0,1,.73A3.28,3.28,0,0,0-20.06-181.09Z" transform="translate(690 240)" fill="#fff"/><path d="M-47.43-179.73v-5.44a3.3,3.3,0,0,0-.51-2,1.73,1.73,0,0,0-1.5-.67,2,2,0,0,0-1.69.81,4.1,4.1,0,0,0-.62,2.48v4.82h-1.81v-5.34a3.5,3.5,0,0,0-.51-2.11,1.77,1.77,0,0,0-1.47-.66,2,2,0,0,0-1.69.81,3.89,3.89,0,0,0-.65,2.48v4.82H-59.7v-9.47h1.82v1.69a2.89,2.89,0,0,1,1-1.36,2.8,2.8,0,0,1,1.79-.57,3.33,3.33,0,0,1,2.05.55,2.84,2.84,0,0,1,1,1.47,2.57,2.57,0,0,1,.44-.77,3.17,3.17,0,0,1,.67-.65,4,4,0,0,1,.88-.44,3.15,3.15,0,0,1,1-.16,3.77,3.77,0,0,1,1.59.29,2.72,2.72,0,0,1,1,.79,3,3,0,0,1,.57,1.19,6,6,0,0,1,.18,1.46v6Z" transform="translate(690 240)" fill="#fff"/><path d="M-42.25-184a4.08,4.08,0,0,0,.2,1.14,2.89,2.89,0,0,0,.52.94,2.5,2.5,0,0,0,.89.65,3.42,3.42,0,0,0,1.34.24,2.55,2.55,0,0,0,1.63-.45,2.49,2.49,0,0,0,.78-1.06H-35a3.58,3.58,0,0,1-1.35,2.12,4.29,4.29,0,0,1-1.27.67,5.06,5.06,0,0,1-1.64.25,5,5,0,0,1-2.09-.4,4.15,4.15,0,0,1-1.49-1.06,4.44,4.44,0,0,1-.88-1.59,6.33,6.33,0,0,1-.3-1.93,6.44,6.44,0,0,1,.32-2,4.51,4.51,0,0,1,.91-1.59,4.26,4.26,0,0,1,1.47-1.05,4.87,4.87,0,0,1,2-.37,4.46,4.46,0,0,1,1.73.32,4.24,4.24,0,0,1,2.67,4c0,.14,0,.31,0,.5A5.2,5.2,0,0,1-35-184ZM-39.4-188a2.89,2.89,0,0,0-2,.7,2.67,2.67,0,0,0-.81,2h5.51a2.59,2.59,0,0,0-.77-2A2.69,2.69,0,0,0-39.4-188Z" transform="translate(690 240)" fill="#fff"/><path d="M-25.58-181.41v1.69h-6.58v-13.1h1.87v11.41Z" transform="translate(690 240)" fill="#fff"/><path d="M-3.78-189.18v9.45h-1.8v-1.61A3.37,3.37,0,0,1-6.95-180a4,4,0,0,1-2,.5,4.66,4.66,0,0,1-2-.4,4.41,4.41,0,0,1-1.54-1.09,5,5,0,0,1-1-1.59,5.13,5.13,0,0,1-.36-1.9,5.24,5.24,0,0,1,.36-1.92,5,5,0,0,1,1-1.6A4.51,4.51,0,0,1-10.9-189a4.9,4.9,0,0,1,2-.4,4.08,4.08,0,0,1,2,.5,3.37,3.37,0,0,1,1.37,1.38v-1.61Zm-5.13,8.12a3.05,3.05,0,0,0,2.93-2,3.7,3.7,0,0,0,0-2.54,3.11,3.11,0,0,0-.64-1,2.94,2.94,0,0,0-1-.72,3.22,3.22,0,0,0-1.3-.27,3.14,3.14,0,0,0-1.29.27,2.9,2.9,0,0,0-1,.72,3.34,3.34,0,0,0-.62,1,3.7,3.7,0,0,0,0,2.54,3.13,3.13,0,0,0,.62,1,3.12,3.12,0,0,0,1,.71,3,3,0,0,0,1.29.26Z" transform="translate(690 240)" fill="#fff"/><path d="M-2.07-189.18H-.25v1.65A3.24,3.24,0,0,1,1-188.93a4,4,0,0,1,2.06-.52,4,4,0,0,1,1.71.33,2.68,2.68,0,0,1,1.13.92A3.7,3.7,0,0,1,6.48-187a7.23,7.23,0,0,1,.17,1.67v5.59H4.83v-5A5.55,5.55,0,0,0,4.71-186a2.66,2.66,0,0,0-.41-1,1.93,1.93,0,0,0-.74-.65,2.43,2.43,0,0,0-1.12-.24,2.42,2.42,0,0,0-1.19.27,2.54,2.54,0,0,0-.84.72,3.08,3.08,0,0,0-.5,1,4.15,4.15,0,0,0-.16,1.21v4.88H-2.07Z" transform="translate(690 240)" fill="#fff"/><path d="M12.82-185c.36.12.71.23,1,.36a3.83,3.83,0,0,1,.92.48,2.31,2.31,0,0,1,.63.73,2.28,2.28,0,0,1,.25,1.11,2.7,2.7,0,0,1-.29,1.25,2.67,2.67,0,0,1-.78.89,3.45,3.45,0,0,1-1.19.53,5.24,5.24,0,0,1-1.47.18,5.5,5.5,0,0,1-1.51-.21,3.45,3.45,0,0,1-1.25-.64,3.15,3.15,0,0,1-.85-1.07A3.29,3.29,0,0,1,8-182.89H9.78a1.75,1.75,0,0,0,.64,1.54,2.72,2.72,0,0,0,1.6.45,2.59,2.59,0,0,0,1.4-.33,1.12,1.12,0,0,0,.51-1,.92.92,0,0,0-.21-.64,1.84,1.84,0,0,0-.6-.43,5.38,5.38,0,0,0-.95-.34c-.38-.11-.8-.25-1.28-.41s-.7-.23-1-.36a2.94,2.94,0,0,1-.82-.48,2.07,2.07,0,0,1-.54-.71,2.52,2.52,0,0,1,.82-3.11,3.76,3.76,0,0,1,1.13-.53,5.47,5.47,0,0,1,1.39-.18,4.4,4.4,0,0,1,1.44.24,3.27,3.27,0,0,1,1.16.66,3.08,3.08,0,0,1,.78,1,2.93,2.93,0,0,1,.28,1.3H13.76a1.65,1.65,0,0,0-.49-1.29,2.05,2.05,0,0,0-1.44-.45,2.22,2.22,0,0,0-1.25.33,1.12,1.12,0,0,0-.51,1,.91.91,0,0,0,.18.58,1.34,1.34,0,0,0,.54.4,6.23,6.23,0,0,0,.85.33Z" transform="translate(690 240)" fill="#fff"/><rect width="728" height="90" fill="none"/></g></g></svg>