<svg xmlns="http://www.w3.org/2000/svg" viewBox="0 0 728 90"><title>cta</title><g id="Layer_2" data-name="Layer 2"><g id="Layer_19" data-name="Layer 19"><path d="M581.06,29.53h-84.5A2.57,2.57,0,0,0,493.88,32V61.11a2.56,2.56,0,0,0,2.68,2.42H603.2a2.56,2.56,0,0,0,2.68-2.42V32a2.57,2.57,0,0,0-2.68-2.43Z" fill="none" stroke="#fff" stroke-miterlimit="10" stroke-width="1.21"/><path d="M524.85,48.08h-1.08A4.53,4.53,0,0,1,519,51.8a4.83,4.83,0,0,1-5-5.07,5,5,0,0,1,5.18-5.22c2.4,0,4.1,1.42,4.26,3.18h-1.76a2.33,2.33,0,0,0-2.5-1.73c-2.39,0-3.5,1.73-3.48,3.77A3.32,3.32,0,0,0,519,50.35a2.86,2.86,0,0,0,3.08-2.27h-1.89V46.64h4.66Z" fill="#fff"/><path d="M532,48.8h-4.84A1.6,1.6,0,0,0,529,50.4a1.42,1.42,0,0,0,1.45-.75H532a2.81,2.81,0,0,1-3,2.08,3.15,3.15,0,0,1-3.34-3.44,3.15,3.15,0,0,1,3.28-3.43A3,3,0,0,1,532,48C532,48.22,532,48.43,532,48.8Zm-1.45-1.16a1.48,1.48,0,0,0-1.66-1.57,1.56,1.56,0,0,0-1.73,1.57Z" fill="#fff"/><path d="M537.14,50.21v1.35a7.84,7.84,0,0,1-1.14.08c-.74,0-2.11-.1-2.11-2.3v-3h-1.11V45h1.11v-2h1.53v2h1.49V46.3h-1.49V49c0,1.14.35,1.28,1,1.28A5.48,5.48,0,0,0,537.14,50.21Z" fill="#fff"/><path d="M541.55,49.55h1.52c0,.57.55,1,1.33,1,.58,0,.94-.31.94-.77s-.15-.59-.85-.77l-1.3-.35a1.8,1.8,0,0,1-1.43-1.84c0-1.11,1-1.92,2.5-1.92s2.58.77,2.58,2h-1.5c0-.54-.42-.86-1.13-.86-.55,0-.94.27-.94.67s.21.59.81.75l1.3.38a1.91,1.91,0,0,1,1.52,1.87c0,1.27-1,2-2.58,2S541.55,50.8,541.55,49.55Z" fill="#fff"/><path d="M552,50.21v1.35a7.79,7.79,0,0,1-1.13.08c-.75,0-2.12-.1-2.12-2.3v-3h-1.11V45h1.11v-2h1.53v2h1.5V46.3h-1.5V49c0,1.14.35,1.28,1,1.28A5.36,5.36,0,0,0,552,50.21Z" fill="#fff"/><path d="M552.86,48.29a3.19,3.19,0,0,1,3.25-3.43,2.38,2.38,0,0,1,2.06,1V45h1.51v6.53h-1.51v-.88a2.59,2.59,0,0,1-2.1,1A3.12,3.12,0,0,1,552.86,48.29Zm5.36,0a1.92,1.92,0,1,0-1.93,2.08A1.88,1.88,0,0,0,558.22,48.29Z" fill="#fff"/><path d="M561.64,45h1.52v1.26A1.77,1.77,0,0,1,564.9,45a2.64,2.64,0,0,1,.6,0v1.4c-.24,0-.36,0-.6,0-1.08,0-1.74.81-1.74,2.29v2.89h-1.52Z" fill="#fff"/><path d="M570.77,50.21v1.35a7.84,7.84,0,0,1-1.14.08c-.74,0-2.11-.1-2.11-2.3v-3h-1.11V45h1.11v-2H569v2h1.5V46.3H569V49c0,1.14.35,1.28,1,1.28A5.61,5.61,0,0,0,570.77,50.21Z" fill="#fff"/><path d="M578,48.8h-4.84a1.6,1.6,0,0,0,1.82,1.6,1.44,1.44,0,0,0,1.46-.75h1.54a2.81,2.81,0,0,1-3,2.08,3.15,3.15,0,0,1-3.34-3.44,3.15,3.15,0,0,1,3.28-3.43A3,3,0,0,1,578,48C578,48.22,578,48.43,578,48.8Zm-1.45-1.16a1.48,1.48,0,0,0-1.66-1.57,1.56,1.56,0,0,0-1.73,1.57Z" fill="#fff"/><path d="M585.8,41.75v9.81h-1.51v-.88a2.56,2.56,0,0,1-2.1,1A3.13,3.13,0,0,1,579,48.29a3.19,3.19,0,0,1,3.25-3.43,2.37,2.37,0,0,1,2.06,1V41.75Zm-1.45,6.54a1.93,1.93,0,1,0-1.94,2.08A1.88,1.88,0,0,0,584.35,48.29Z" fill="#fff"/><rect width="728" height="90" fill="none"/></g></g></svg>