<svg xmlns="http://www.w3.org/2000/svg" viewBox="0 0 160 600"><title>txt1c</title><g id="Layer_2" data-name="Layer 2"><g id="Layer_5" data-name="Layer 5"><path d="M23.77,491.83V499h-3.7v-6c0-1.95-.55-2.84-2-2.84s-2.23,1-2.23,2.74V499H12.13v-16.8H15.8v6.91a3.92,3.92,0,0,1,3.75-2C22.35,487.1,23.77,488.68,23.77,491.83Z" fill="#fff"/><path d="M25.79,493.19c0-3.52,2.44-6.09,6.43-6.09s6.41,2.57,6.41,6.09-2.45,6.1-6.41,6.1S25.79,496.72,25.79,493.19Zm9.19,0a2.77,2.77,0,1,0-2.76,3A2.71,2.71,0,0,0,35,493.19Z" fill="#fff"/><path d="M40.74,487.41h3.67v1.68a3.47,3.47,0,0,1,3.31-2,3.51,3.51,0,0,1,3.63,2.13A4,4,0,0,1,55,487.1c3.32,0,4.11,2.28,4.11,4.7V499h-3.7v-6.51c0-1.6-.6-2.28-1.73-2.28s-1.94.65-1.94,2.84v6h-3.7v-6.53c0-1.61-.57-2.26-1.7-2.26s-2,.65-2,2.84v6H40.74Z" fill="#fff"/><path d="M73.33,494.2H64.79c.07,1.51,1.08,2.33,2.71,2.33,1.13,0,1.85-.31,2.16-1h3.6c-.36,2.28-2.69,3.79-5.76,3.79-3.94,0-6.36-2.23-6.36-6.1s2.47-6.09,6.24-6.09c3.6,0,6.05,2.23,6.05,5.49A13,13,0,0,1,73.33,494.2Zm-3.53-2.28a2.18,2.18,0,0,0-2.45-2.35,2.31,2.31,0,0,0-2.56,2.35Z" fill="#fff"/><path d="M81.37,482.18H85V499H81.37Z" fill="#fff"/><path d="M87.15,493.19c0-3.52,2.45-6.09,6.43-6.09s6.41,2.57,6.41,6.09-2.44,6.1-6.41,6.1S87.15,496.72,87.15,493.19Zm9.2,0a2.77,2.77,0,1,0-5.52,0,2.77,2.77,0,1,0,5.52,0Z" fill="#fff"/><path d="M101.46,493.19c0-3.45,2.13-6.09,5.49-6.09a4,4,0,0,1,3.63,2v-1.66h3.65V499h-3.65v-1.63a4.17,4.17,0,0,1-3.67,1.94C103.45,499.29,101.46,496.67,101.46,493.19Zm9.26,0a2.77,2.77,0,1,0-5.52,0,2.77,2.77,0,0,0,2.76,3.05C109.79,496.24,110.72,494.87,110.72,493.19Z" fill="#fff"/><path d="M117.27,487.41h3.67v1.68a3.94,3.94,0,0,1,3.75-2q4.22,0,4.22,4.73V499h-3.69v-6c0-1.95-.56-2.84-2-2.84s-2.24,1-2.24,2.74V499h-3.67Z" fill="#fff"/><path d="M131,495.5h3.65c0,.79.77,1.34,1.89,1.34.8,0,1.35-.38,1.35-1s-.27-.84-1.25-1.08l-2.42-.6a3.38,3.38,0,0,1-2.91-3.39c0-2.18,2-3.62,4.95-3.62,3.26,0,5.16,1.27,5.16,3.57h-3.63c0-.81-.6-1.24-1.58-1.24-.79,0-1.32.38-1.32.93s.33.87,1.27,1.11l2.45.67c1.82.48,2.93,1.58,2.93,3.33,0,2.41-2,3.82-5.07,3.82C133.18,499.29,131,497.75,131,495.5Z" fill="#fff"/><path d="M143.26,496.87a2.38,2.38,0,1,1,2.38,2.35A2.36,2.36,0,0,1,143.26,496.87Z" fill="#fff"/><rect width="160" height="600" fill="none"/></g></g></svg>