<svg xmlns="http://www.w3.org/2000/svg" viewBox="0 0 728 90"><title>txt1a</title><g id="Layer_2" data-name="Layer 2"><g id="Layer_14_copy" data-name="Layer 14 copy"><path d="M325.38,21.56h3.88v16.8h-3.88Z" fill="#fff"/><path d="M332.41,26.79h3.67v1.68a3.91,3.91,0,0,1,3.74-2c2.81,0,4.23,1.58,4.23,4.73v7.15h-3.7v-6c0-1.95-.55-2.84-2-2.84s-2.23,1-2.23,2.74v6h-3.67Z" fill="#fff"/><path d="M354.1,35.43v2.93a14.89,14.89,0,0,1-2.44.19c-1.73,0-4.11-.38-4.11-4.25V29.69h-1.82v-2.9h1.82V23.36h3.67v3.43h2.62v2.9h-2.62v3.84c0,1.71.7,2,1.61,2A9.92,9.92,0,0,0,354.1,35.43Z" fill="#fff"/><path d="M356.22,26.79h3.67v2.42a3.23,3.23,0,0,1,3.19-2.61,3.72,3.72,0,0,1,1,.09V30.1a7.92,7.92,0,0,0-1.1-.07c-2,0-3.05,1.3-3.05,3.86v4.47h-3.67Z" fill="#fff"/><path d="M365,32.57c0-3.53,2.45-6.09,6.44-6.09s6.4,2.56,6.4,6.09-2.44,6.1-6.4,6.1S365,36.1,365,32.57Zm9.2,0a2.77,2.77,0,1,0-5.52,0,2.77,2.77,0,1,0,5.52,0Z" fill="#fff"/><path d="M392.1,21.56v16.8h-3.65V36.73a4.17,4.17,0,0,1-3.67,1.94c-3.46,0-5.45-2.62-5.45-6.1s2.13-6.09,5.49-6.09a4,4,0,0,1,3.63,2V21.56Zm-3.51,11a2.77,2.77,0,1,0-5.52,0,2.77,2.77,0,0,0,2.76,3C387.66,35.62,388.59,34.25,388.59,32.57Z" fill="#fff"/><path d="M395,33.94V26.79h3.72v6.33c0,1.59.53,2.45,1.92,2.45,1.56,0,2.24-1,2.24-2.56V26.79h3.64V38.36H402.9V36.7a3.78,3.78,0,0,1-3.6,2C396.51,38.67,395,36.94,395,33.94Z" fill="#fff"/><path d="M408.68,32.57c0-3.64,2.37-6.09,6.19-6.09,3.46,0,5.71,1.82,6,4.7H417.2c-.26-1.08-1-1.58-2.3-1.58-1.59,0-2.55,1-2.55,3s1,3,2.55,3c1.34,0,2-.48,2.3-1.49h3.67c-.29,2.81-2.54,4.61-6,4.61C411.05,38.67,408.68,36.22,408.68,32.57Z" fill="#fff"/><path d="M422.55,23.55a2.27,2.27,0,1,1,2.26,2.23A2.21,2.21,0,0,1,422.55,23.55Zm.43,3.24h3.65V38.36H423Z" fill="#fff"/><path d="M429.68,26.79h3.67v1.68a3.92,3.92,0,0,1,3.75-2c2.8,0,4.22,1.58,4.22,4.73v7.15h-3.7v-6c0-1.95-.55-2.84-2-2.84s-2.23,1-2.23,2.74v6h-3.67Z" fill="#fff"/><path d="M456.2,26.79V37.61A5.68,5.68,0,0,1,454,42.49a7.12,7.12,0,0,1-4.13,1,8.06,8.06,0,0,1-4.18-.94,4.19,4.19,0,0,1-2.06-3.21h3.74c.17.91,1,1.46,2.45,1.46,1.71,0,2.74-.74,2.74-2.81V36.49a4.09,4.09,0,0,1-3.63,1.87c-3.43,0-5.49-2.5-5.49-5.91s2.21-6,5.54-6a3.9,3.9,0,0,1,3.58,2V26.79Zm-3.5,5.71a2.78,2.78,0,1,0-5.53,0,2.78,2.78,0,1,0,5.53,0Z" fill="#fff"/><path d="M476.33,33.58h-8.54c.07,1.51,1.08,2.33,2.71,2.33,1.13,0,1.85-.31,2.16-1h3.6c-.36,2.28-2.68,3.79-5.76,3.79-3.93,0-6.36-2.23-6.36-6.1s2.47-6.09,6.24-6.09c3.6,0,6.05,2.23,6.05,5.49A11.31,11.31,0,0,1,476.33,33.58Zm-3.52-2.28A2.18,2.18,0,0,0,470.36,29a2.31,2.31,0,0,0-2.57,2.35Z" fill="#fff"/><path d="M477.89,32.57c0-3.45,2.14-6.09,5.5-6.09a3.94,3.94,0,0,1,3.62,2V26.79h3.65V38.36H487V36.73a4.15,4.15,0,0,1-3.67,1.94C479.89,38.67,477.89,36.05,477.89,32.57Zm9.27,0a2.77,2.77,0,1,0-5.52,0,2.77,2.77,0,1,0,5.52,0Z" fill="#fff"/><path d="M492.87,34.88h3.65c0,.79.77,1.34,1.89,1.34.8,0,1.35-.38,1.35-1s-.27-.84-1.25-1.08l-2.42-.6a3.38,3.38,0,0,1-2.91-3.39c0-2.18,2-3.62,4.95-3.62,3.26,0,5.16,1.27,5.16,3.57h-3.63c0-.81-.6-1.25-1.58-1.25-.79,0-1.32.39-1.32.94s.33.87,1.27,1.11l2.45.67c1.82.48,2.93,1.58,2.93,3.33,0,2.4-2,3.82-5.07,3.82C495.05,38.67,492.87,37.13,492.87,34.88Z" fill="#fff"/><path d="M505.25,23.55a2.27,2.27,0,1,1,2.26,2.23A2.21,2.21,0,0,1,505.25,23.55Zm.44,3.24h3.64V38.36h-3.64Z" fill="#fff"/><path d="M523.66,33.58h-8.54c.07,1.51,1.08,2.33,2.71,2.33,1.13,0,1.85-.31,2.16-1h3.6c-.36,2.28-2.69,3.79-5.76,3.79-3.94,0-6.36-2.23-6.36-6.1s2.47-6.09,6.24-6.09c3.6,0,6,2.23,6,5.49A13,13,0,0,1,523.66,33.58Zm-3.53-2.28A2.17,2.17,0,0,0,517.69,29a2.31,2.31,0,0,0-2.57,2.35Z" fill="#fff"/><path d="M525.87,26.79h3.67v2.42a3.23,3.23,0,0,1,3.19-2.61,3.63,3.63,0,0,1,1,.09V30.1a7.82,7.82,0,0,0-1.1-.07c-2,0-3.05,1.3-3.05,3.86v4.47h-3.67Z" fill="#fff"/><rect width="728" height="90" fill="none"/></g></g></svg>