<svg xmlns="http://www.w3.org/2000/svg" viewBox="0 0 728 90"><title>txt1b</title><g id="Layer_2" data-name="Layer 2"><g id="Layer_14" data-name="Layer 14"><path d="M336.9,57.21v7.15h-3.7v-6c0-1.95-.55-2.84-2-2.84s-2.23,1-2.23,2.74v6h-3.67V47.56h3.67v6.91a3.91,3.91,0,0,1,3.74-2C335.48,52.48,336.9,54.06,336.9,57.21Z" fill="#fff"/><path d="M338.91,58.57c0-3.53,2.45-6.09,6.43-6.09s6.41,2.56,6.41,6.09-2.45,6.1-6.41,6.1S338.91,62.1,338.91,58.57Zm9.19,0a2.77,2.77,0,1,0-5.52,0,2.77,2.77,0,1,0,5.52,0Z" fill="#fff"/><path d="M353.86,52.79h3.68v1.68a3.94,3.94,0,0,1,6.93.14,4.06,4.06,0,0,1,3.7-2.13c3.31,0,4.1,2.28,4.1,4.7v7.18h-3.69V57.85c0-1.6-.6-2.28-1.73-2.28s-1.94.65-1.94,2.84v6h-3.7V57.83c0-1.61-.58-2.26-1.71-2.26s-2,.65-2,2.84v6h-3.68Z" fill="#fff"/><path d="M386.46,59.58h-8.55c.07,1.51,1.08,2.33,2.71,2.33,1.13,0,1.85-.31,2.16-1h3.6c-.36,2.28-2.68,3.79-5.76,3.79-3.93,0-6.36-2.23-6.36-6.1s2.48-6.09,6.24-6.09c3.6,0,6.05,2.23,6.05,5.49A12.92,12.92,0,0,1,386.46,59.58Zm-3.53-2.28A2.18,2.18,0,0,0,380.48,55a2.32,2.32,0,0,0-2.57,2.35Z" fill="#fff"/><path d="M394.5,47.56h3.67v16.8H394.5Z" fill="#fff"/><path d="M400.28,58.57c0-3.53,2.45-6.09,6.43-6.09s6.41,2.56,6.41,6.09-2.45,6.1-6.41,6.1S400.28,62.1,400.28,58.57Zm9.19,0a2.77,2.77,0,1,0-5.52,0,2.77,2.77,0,1,0,5.52,0Z" fill="#fff"/><path d="M414.58,58.57c0-3.45,2.14-6.09,5.5-6.09a3.94,3.94,0,0,1,3.62,2V52.79h3.65V64.36H423.7V62.73A4.15,4.15,0,0,1,420,64.67C416.58,64.67,414.58,62.05,414.58,58.57Zm9.27,0a2.77,2.77,0,1,0-5.52,0,2.77,2.77,0,1,0,5.52,0Z" fill="#fff"/><path d="M430.4,52.79h3.67v1.68a3.92,3.92,0,0,1,3.75-2c2.8,0,4.22,1.58,4.22,4.73v7.15h-3.7v-6c0-1.95-.55-2.84-2-2.84s-2.23,1-2.23,2.74v6H430.4Z" fill="#fff"/><path d="M444.13,60.88h3.64c0,.79.77,1.34,1.9,1.34.79,0,1.34-.38,1.34-1s-.26-.84-1.24-1.08l-2.43-.6a3.37,3.37,0,0,1-2.9-3.39c0-2.18,2-3.62,4.94-3.62,3.27,0,5.16,1.27,5.16,3.57h-3.62c0-.81-.6-1.25-1.59-1.25-.79,0-1.32.39-1.32.94s.34.87,1.28,1.11l2.45.67c1.82.48,2.92,1.58,2.92,3.33,0,2.4-2,3.82-5.06,3.82C446.31,64.67,444.13,63.13,444.13,60.88Z" fill="#fff"/><path d="M456.39,62.25a2.38,2.38,0,1,1,2.38,2.35A2.35,2.35,0,0,1,456.39,62.25Z" fill="#fff"/><rect width="728" height="90" fill="none"/></g></g></svg>