<svg xmlns="http://www.w3.org/2000/svg" viewBox="0 0 728 90"><title>txt2b</title><g id="Layer_2" data-name="Layer 2"><g id="Layer_16" data-name="Layer 16"><path d="M336.75,53.54V64.75a5.49,5.49,0,0,1-1.65,4.18,6.07,6.07,0,0,1-4.25,1.34,6.44,6.44,0,0,1-4.27-1.2,4.1,4.1,0,0,1-1.44-3h3.69c.07,1,.63,1.56,2,1.56s2.23-.79,2.23-2.59v-1.8a3.88,3.88,0,0,1-3.67,1.92c-3,0-4.27-2-4.27-4.85V53.54h3.67v6.17c0,1.49.5,2.5,2,2.5s2.23-1.16,2.23-2.93V53.54Z" fill="#fff"/><path d="M338.86,59.33c0-3.53,2.45-6.1,6.44-6.1s6.41,2.57,6.41,6.1-2.45,6.09-6.41,6.09S338.86,62.85,338.86,59.33Zm9.2,0a2.77,2.77,0,1,0-2.76,3A2.71,2.71,0,0,0,348.06,59.33Z" fill="#fff"/><path d="M353.7,60.69V53.54h3.72v6.34c0,1.58.52,2.45,1.92,2.45,1.56,0,2.23-1,2.23-2.57V53.54h3.65V65.11h-3.65V63.46a3.79,3.79,0,0,1-3.6,2C355.18,65.42,353.7,63.7,353.7,60.69Z" fill="#fff"/><path d="M381.44,62.18v2.93a14,14,0,0,1-2.45.19c-1.73,0-4.1-.38-4.1-4.25v-4.6h-1.83V53.54h1.83V50.11h3.67v3.43h2.62v2.91h-2.62v3.84c0,1.7.7,2,1.61,2A10,10,0,0,0,381.44,62.18Z" fill="#fff"/><path d="M383.55,53.54h3.67V56a3.25,3.25,0,0,1,3.2-2.62,3.28,3.28,0,0,1,1,.1v3.4a10,10,0,0,0-1.11-.07c-2,0-3,1.3-3,3.87v4.46h-3.67Z" fill="#fff"/><path d="M393.22,60.69V53.54h3.72v6.34c0,1.58.53,2.45,1.92,2.45,1.56,0,2.24-1,2.24-2.57V53.54h3.64V65.11H401.1V63.46a3.79,3.79,0,0,1-3.6,2C394.71,65.42,393.22,63.7,393.22,60.69Z" fill="#fff"/><path d="M407,61.63h3.65c0,.79.77,1.34,1.9,1.34.79,0,1.34-.38,1.34-1s-.26-.84-1.25-1.08l-2.42-.6a3.38,3.38,0,0,1-2.91-3.39c0-2.18,2-3.62,4.95-3.62,3.26,0,5.16,1.27,5.16,3.58h-3.63c0-.82-.6-1.25-1.58-1.25-.79,0-1.32.38-1.32.93s.34.87,1.27,1.11l2.45.67c1.82.48,2.93,1.58,2.93,3.34,0,2.4-2,3.81-5.07,3.81C409.14,65.42,407,63.89,407,61.63Z" fill="#fff"/><path d="M426.94,62.18v2.93a13.84,13.84,0,0,1-2.44.19c-1.73,0-4.11-.38-4.11-4.25v-4.6h-1.82V53.54h1.82V50.11h3.67v3.43h2.62v2.91h-2.62v3.84c0,1.7.7,2,1.61,2A9.92,9.92,0,0,0,426.94,62.18Z" fill="#fff"/><path d="M428.91,63a2.38,2.38,0,1,1,2.38,2.35A2.34,2.34,0,0,1,428.91,63Z" fill="#fff"/><rect width="728" height="90" fill="none"/></g></g></svg>