<svg xmlns="http://www.w3.org/2000/svg" viewBox="0 0 728 90"><title>txt2a</title><g id="Layer_2" data-name="Layer 2"><g id="Layer_16_copy" data-name="Layer 16 copy"><path d="M325.38,22.31h10.27v3.26h-6.39v4.54h6.39V33.3h-6.39v5.81h-3.88Z" fill="#fff"/><path d="M338.24,27.54h3.67V30a3.24,3.24,0,0,1,3.19-2.62,3.2,3.2,0,0,1,1,.1v3.4a9.69,9.69,0,0,0-1.1-.07c-2,0-3,1.3-3,3.87v4.46h-3.67Z" fill="#fff"/><path d="M347.05,33.33c0-3.53,2.45-6.1,6.43-6.1s6.41,2.57,6.41,6.1-2.45,6.09-6.41,6.09S347.05,36.85,347.05,33.33Zm9.19,0a2.77,2.77,0,1,0-5.52,0,2.77,2.77,0,1,0,5.52,0Z" fill="#fff"/><path d="M362,27.54h3.67v1.68a3.49,3.49,0,0,1,3.31-2c2.07,0,3.13.91,3.63,2.14a4,4,0,0,1,3.7-2.14c3.31,0,4.1,2.28,4.1,4.7v7.18h-3.7v-6.5c0-1.61-.6-2.28-1.72-2.28S373,31,373,33.16v6h-3.7V32.58c0-1.61-.57-2.25-1.7-2.25s-2,.64-2,2.83v6H362Z" fill="#fff"/><path d="M388.3,33.33c0-3.46,2.14-6.1,5.5-6.1a3.94,3.94,0,0,1,3.62,2V27.54h3.65V39.11h-3.65V37.48a4.15,4.15,0,0,1-3.67,1.94C390.3,39.42,388.3,36.81,388.3,33.33Zm9.27,0a2.77,2.77,0,1,0-5.52,0,2.77,2.77,0,1,0,5.52,0Z" fill="#fff"/><path d="M410,22.31h3.67v16.8H410Z" fill="#fff"/><path d="M427.93,34.33h-8.55c.08,1.52,1.08,2.33,2.72,2.33,1.12,0,1.84-.31,2.16-1h3.6c-.36,2.28-2.69,3.79-5.76,3.79-3.94,0-6.36-2.23-6.36-6.09s2.47-6.1,6.24-6.1c3.6,0,6,2.23,6,5.5A12.66,12.66,0,0,1,427.93,34.33Zm-3.53-2.28A2.18,2.18,0,0,0,422,29.7a2.33,2.33,0,0,0-2.57,2.35Z" fill="#fff"/><path d="M430.13,27.54h3.68v1.68a3.93,3.93,0,0,1,3.74-2c2.81,0,4.23,1.58,4.23,4.73v7.15h-3.7v-6c0-1.95-.55-2.83-2-2.83s-2.23,1-2.23,2.73v6h-3.68Z" fill="#fff"/><path d="M456.63,22.31v16.8H453V37.48a4.15,4.15,0,0,1-3.67,1.94c-3.46,0-5.45-2.61-5.45-6.09s2.14-6.1,5.5-6.1a3.94,3.94,0,0,1,3.62,2V22.31Zm-3.5,11a2.77,2.77,0,1,0-5.52,0,2.77,2.77,0,1,0,5.52,0Z" fill="#fff"/><path d="M471,34.33h-8.54c.07,1.52,1.08,2.33,2.71,2.33,1.13,0,1.85-.31,2.16-1h3.6c-.36,2.28-2.69,3.79-5.76,3.79-3.94,0-6.36-2.23-6.36-6.09s2.47-6.1,6.24-6.1c3.6,0,6.05,2.23,6.05,5.5A12.72,12.72,0,0,1,471,34.33Zm-3.53-2.28A2.18,2.18,0,0,0,465,29.7a2.31,2.31,0,0,0-2.56,2.35Z" fill="#fff"/><path d="M473.17,27.54h3.67V30A3.24,3.24,0,0,1,480,27.35a3.28,3.28,0,0,1,1,.1v3.4a9.84,9.84,0,0,0-1.1-.07c-2,0-3.05,1.3-3.05,3.87v4.46h-3.67Z" fill="#fff"/><rect width="728" height="90" fill="none"/></g></g></svg>