<svg xmlns="http://www.w3.org/2000/svg" viewBox="0 0 728 90"><title>txt3</title><g id="Layer_2" data-name="Layer 2"><g id="Layer_18" data-name="Layer 18"><path d="M281,50.45H268.49v9H265V34.84h3.54V47.3H281V34.84h3.54V59.49H281Z" fill="#fff"/><path d="M297,60a9.61,9.61,0,0,1-3.85-.75,8.73,8.73,0,0,1-3-2,9.34,9.34,0,0,1-1.88-3,9.9,9.9,0,0,1,0-7.16,9,9,0,0,1,1.88-3,8.83,8.83,0,0,1,2.94-2,9.62,9.62,0,0,1,3.86-.74,9.74,9.74,0,0,1,3.88.74A9,9,0,0,1,305.7,47a9.93,9.93,0,0,1,0,7.17,9.07,9.07,0,0,1-1.9,3,8.81,8.81,0,0,1-3,2A9.58,9.58,0,0,1,297,60Zm0-3.06a6,6,0,0,0,4.4-1.87,6,6,0,0,0,1.21-2,7,7,0,0,0,0-4.87,6.19,6.19,0,0,0-1.21-2,5.77,5.77,0,0,0-1.91-1.38,6,6,0,0,0-2.49-.51,5.86,5.86,0,0,0-2.48.51,5.48,5.48,0,0,0-1.86,1.38,6.17,6.17,0,0,0-1.2,2,7,7,0,0,0,0,4.87,6.18,6.18,0,0,0,1.2,2A5.78,5.78,0,0,0,297,56.9Z" fill="#fff"/><path d="M383.71,60a9.61,9.61,0,0,1-3.85-.75,8.73,8.73,0,0,1-2.95-2,9.34,9.34,0,0,1-1.88-3,9.51,9.51,0,0,1-.67-3.57A9.77,9.77,0,0,1,375,47a9.32,9.32,0,0,1,1.88-3,8.73,8.73,0,0,1,2.95-2,9.61,9.61,0,0,1,3.85-.75,9.83,9.83,0,0,1,3.89.75A8.91,8.91,0,0,1,392.46,47a9.9,9.9,0,0,1,0,7.16,9.22,9.22,0,0,1-1.9,3,9,9,0,0,1-3,2A9.83,9.83,0,0,1,383.71,60Zm0-3.09a5.91,5.91,0,0,0,4.4-1.86,6,6,0,0,0,1.21-2,7,7,0,0,0,0-4.87,6.19,6.19,0,0,0-1.21-2,6.14,6.14,0,0,0-6.88-1.38,5.75,5.75,0,0,0-1.86,1.38,6.39,6.39,0,0,0-1.2,2,7.15,7.15,0,0,0,0,4.87,6.23,6.23,0,0,0,1.2,2,5.75,5.75,0,0,0,4.34,1.86Z" fill="#fff"/><path d="M332.48,59.49V49.29a6.16,6.16,0,0,0-1-3.74,3.3,3.3,0,0,0-2.81-1.27,3.78,3.78,0,0,0-3.17,1.53,7.57,7.57,0,0,0-1.19,4.65v9h-3.41v-10a6.52,6.52,0,0,0-1-3.95,3.29,3.29,0,0,0-2.77-1.25A3.88,3.88,0,0,0,314,45.81a7.36,7.36,0,0,0-1.22,4.65v8.9H309.4V41.66h3.41v3.16a5.46,5.46,0,0,1,1.88-2.56A5.29,5.29,0,0,1,318,41.19a6.23,6.23,0,0,1,3.83,1A5.24,5.24,0,0,1,323.74,45a5.42,5.42,0,0,1,.82-1.44,6.08,6.08,0,0,1,1.27-1.21,6.46,6.46,0,0,1,1.64-.82,6.24,6.24,0,0,1,2-.31,7,7,0,0,1,3,.55,5.17,5.17,0,0,1,2,1.48,6,6,0,0,1,1.08,2.22,11.46,11.46,0,0,1,.33,2.73V59.36Z" fill="#fff"/><path d="M342.11,51.5a7.45,7.45,0,0,0,.37,2.14,5.39,5.39,0,0,0,1,1.77,4.69,4.69,0,0,0,1.67,1.22,6.28,6.28,0,0,0,2.52.45,4.72,4.72,0,0,0,3.05-.85,4.59,4.59,0,0,0,1.47-2h3.46a6.68,6.68,0,0,1-2.52,4,8.3,8.3,0,0,1-2.39,1.26,10.52,10.52,0,0,1-7-.28,7.92,7.92,0,0,1-2.79-2,8.36,8.36,0,0,1-1.65-3,11.81,11.81,0,0,1-.55-3.64,11.51,11.51,0,0,1,.59-3.73,8.5,8.5,0,0,1,1.71-3,7.81,7.81,0,0,1,2.75-2,9.41,9.41,0,0,1,3.76-.7,8.55,8.55,0,0,1,3.24.6,8,8,0,0,1,5,7.45c0,.27,0,.58,0,1a11.05,11.05,0,0,1-.13,1.29Zm5.34-7.69a5.44,5.44,0,0,0-3.77,1.31,5,5,0,0,0-1.53,3.75h10.33a4.87,4.87,0,0,0-1.43-3.71,5.06,5.06,0,0,0-3.6-1.35Z" fill="#fff"/><path d="M373.39,56.35v3.14H361.07V35h3.54V56.35Z" fill="#fff"/><path d="M414.3,41.79v17.7h-3.54V56.42A5.44,5.44,0,0,1,408.29,59a7.49,7.49,0,0,1-3.67,1,9.15,9.15,0,0,1-3.73-.75,8.68,8.68,0,0,1-2.89-2,9.6,9.6,0,0,1-1.87-3,10,10,0,0,1,0-7.16A9.51,9.51,0,0,1,398,44a8.6,8.6,0,0,1,2.88-2,9.21,9.21,0,0,1,3.73-.75,7.53,7.53,0,0,1,3.68,1,11.87,11.87,0,0,1,2.6,2.59v-3ZM404.61,57a5.77,5.77,0,0,0,4.3-1.82,6.11,6.11,0,0,0,1.2-1.94,7,7,0,0,0,0-4.77,6.09,6.09,0,0,0-1.2-2,5.5,5.5,0,0,0-1.86-1.34,5.86,5.86,0,0,0-2.44-.5,5.48,5.48,0,0,0-2.42.5,5.35,5.35,0,0,0-1.82,1.34,6.33,6.33,0,0,0-1.18,2,7,7,0,0,0,0,4.77,6.24,6.24,0,0,0,1.18,1.94A5.58,5.58,0,0,0,404.61,57Z" fill="#fff"/><path d="M417.45,41.79h3.41v3.1a6.08,6.08,0,0,1,2.39-2.63,7.35,7.35,0,0,1,3.88-1,7.81,7.81,0,0,1,3.22.6,5.14,5.14,0,0,1,2.12,1.74,6.56,6.56,0,0,1,1.06,2.27,13,13,0,0,1,.31,3.12V59.49h-3.41V50.08a10.35,10.35,0,0,0-.23-2.29,5.34,5.34,0,0,0-.77-1.84A3.86,3.86,0,0,0,428,44.74a4.55,4.55,0,0,0-2.12-.45,4.69,4.69,0,0,0-2.24.51,4.85,4.85,0,0,0-1.57,1.35,6.29,6.29,0,0,0-.94,1.93,8.29,8.29,0,0,0-.31,2.27v9.14h-3.41Z" fill="#fff"/><path d="M445.34,49.65c.68.21,1.34.44,2,.67a6.54,6.54,0,0,1,1.71.91,4,4,0,0,1,1.2,1.37,4.34,4.34,0,0,1,.45,2.09,4.94,4.94,0,0,1-.52,2.33,4.88,4.88,0,0,1-1.48,1.68,7,7,0,0,1-2.22,1,10.82,10.82,0,0,1-2.77.33,9.67,9.67,0,0,1-2.83-.39,6.67,6.67,0,0,1-2.34-1.2,6,6,0,0,1-1.61-2,6.16,6.16,0,0,1-.62-2.83h3.34a3.28,3.28,0,0,0,1.2,2.89,5.07,5.07,0,0,0,3,.85,4.84,4.84,0,0,0,2.62-.61,2.15,2.15,0,0,0,1-1.95,1.8,1.8,0,0,0-.39-1.2,3.54,3.54,0,0,0-1.12-.8,10.66,10.66,0,0,0-1.79-.65c-.71-.2-1.51-.45-2.4-.77-.68-.21-1.32-.43-1.91-.67a5.5,5.5,0,0,1-1.53-.9,4,4,0,0,1-1-1.34,4.63,4.63,0,0,1-.38-2,4.53,4.53,0,0,1,1.94-3.84,6.63,6.63,0,0,1,2.12-1,9.84,9.84,0,0,1,2.59-.33,8.37,8.37,0,0,1,2.72.43A6.52,6.52,0,0,1,448.42,43a5.93,5.93,0,0,1,1.46,1.91,5.42,5.42,0,0,1,.52,2.44h-3.3a3.13,3.13,0,0,0-.92-2.42,3.91,3.91,0,0,0-2.69-.85,4.21,4.21,0,0,0-2.37.63,2.08,2.08,0,0,0-.94,1.85,1.72,1.72,0,0,0,.33,1.1,2.68,2.68,0,0,0,1,.75,13,13,0,0,0,1.61.61Z" fill="#fff"/><path d="M228.89,41.66h5.62L236.15,47c.55,1.77,1,3.44,1.47,5.13h.07c.46-1.66.95-3.42,1.49-5.13l1.71-5.36h4.17L246.75,47c.57,1.84,1,3.43,1.46,5.13h.07c.45-1.7.92-3.34,1.47-5.13l1.64-5.36h5.21l-5.68,17.7h-5.14l-1.4-4.43c-.54-1.74-1-3.51-1.5-5.14h-.07q-.66,2.46-1.52,5.11l-1.44,4.46h-5.23Z" fill="#fff"/><rect x="191" y="32.35" width="5.64" height="27.01" fill="#fff"/><rect x="200.96" y="32.35" width="5.64" height="27.01" fill="#fff"/><path d="M209.43,50.62A9.59,9.59,0,1,1,219,60a9.35,9.35,0,0,1-9.61-9.35m13.7,0A4.13,4.13,0,1,0,219,55a4.18,4.18,0,0,0,4.09-4.41" fill="#fff"/><polygon points="157.95 34.84 157.95 40.09 168.09 40.09 168.13 40.16 157.69 57.87 157.69 59.36 177.36 59.36 177.36 54.25 166.41 54.25 166.38 54.12 176.79 36.41 176.7 36.41 176.7 34.84 157.95 34.84" fill="#fff"/><path d="M183.8,32.91a3.19,3.19,0,1,1-3.25,3.2,3.22,3.22,0,0,1,3.25-3.2M181,41.66h5.64v17.7H181Z" fill="#fff"/><path d="M260.32,39.12a.83.83,0,0,0-.79-.87h-1v2.49h.39V40h.42l.48.78h.46l-.49-.8A.84.84,0,0,0,260.32,39.12Zm-.9.57h-.5v-1h.5a.54.54,0,0,1,.49.57A.53.53,0,0,1,259.42,39.69Z" fill="#fff"/><path d="M259.34,37.43a2.15,2.15,0,1,0,2.15,2.15A2.14,2.14,0,0,0,259.34,37.43Zm-.06,3.88A1.74,1.74,0,1,1,261,39.57h0A1.73,1.73,0,0,1,259.28,41.31Z" fill="#fff"/><rect width="728" height="90" fill="none"/></g></g></svg>